<svg id="Layer_1" data-name="Layer 1" xmlns="http://www.w3.org/2000/svg" viewBox="0 0 160.01 100"><defs><style>.cls-1{fill:#f9d2b0;}.cls-2{fill:#3abddf;}.cls-3{fill:#0099d5;}.cls-4{fill:#205e6d;}.cls-5{fill:#314d9c;}.cls-6{fill:#9e6f13;}.cls-7{fill:#f7a937;}.cls-8{fill:#202a43;}</style></defs><rect class="cls-1" x="44.57" y="34.85" width="1.56" height="1.56" transform="translate(-1.79 68.86) rotate(-73.34)"/><rect class="cls-1" x="43.38" y="36.12" width="1.56" height="1.56" transform="translate(-3.85 68.62) rotate(-73.34)"/><rect class="cls-1" x="42.19" y="37.39" width="1.56" height="1.56" transform="translate(-5.92 68.39) rotate(-73.34)"/><rect class="cls-1" x="41.01" y="38.62" width="1.56" height="1.56" transform="translate(-7.94 68.14) rotate(-73.34)"/><rect class="cls-1" x="140.86" y="34.33" width="1.56" height="1.56" transform="translate(-3.79 23.13) rotate(-9.21)"/><rect class="cls-1" x="142.36" y="35.67" width="1.56" height="1.56" transform="translate(-3.99 23.39) rotate(-9.21)"/><rect class="cls-1" x="143.66" y="37.03" width="1.56" height="1.56" transform="translate(-4.19 23.61) rotate(-9.21)"/><rect class="cls-1" x="145.09" y="38.37" width="1.56" height="1.56" transform="translate(-4.39 23.86) rotate(-9.21)"/><rect class="cls-2" x="109.64" y="34.27" width="1.56" height="1.56"/><rect class="cls-2" x="110.39" y="35.83" width="1.56" height="1.56"/><rect class="cls-1" x="111.19" y="37.39" width="1.56" height="1.56"/><rect class="cls-1" x="112.68" y="38.46" width="1.56" height="1.56"/><g id="Right_Shoe" data-name="Right Shoe"><rect x="12.98" y="98.44" width="1.56" height="1.56"/><rect x="14.53" y="98.44" width="1.56" height="1.56"/></g><g id="Left_Shoe" data-name="Left Shoe"><rect x="16.09" y="98.44" width="1.56" height="1.56"/><rect x="17.64" y="98.44" width="1.56" height="1.56"/></g><rect class="cls-3" x="12.98" y="84.44" width="1.56" height="1.56"/><rect class="cls-3" x="14.53" y="84.44" width="1.56" height="1.56"/><rect class="cls-2" x="16.09" y="84.44" width="1.56" height="1.56"/><rect class="cls-3" x="12.98" y="87.55" width="1.56" height="1.56"/><rect class="cls-2" x="16.09" y="87.55" width="1.56" height="1.56"/><rect class="cls-3" x="12.98" y="86" width="1.56" height="1.56"/><rect class="cls-2" x="16.09" y="86" width="1.56" height="1.56"/><rect class="cls-3" x="12.98" y="89.11" width="1.56" height="1.56"/><rect class="cls-2" x="16.09" y="89.11" width="1.56" height="1.56"/><rect class="cls-4" x="12.98" y="90.66" width="1.56" height="1.56"/><rect class="cls-4" x="16.09" y="90.66" width="1.56" height="1.56"/><rect class="cls-4" x="12.98" y="92.22" width="1.56" height="1.56"/><rect class="cls-4" x="16.09" y="92.22" width="1.56" height="1.56"/><rect class="cls-4" x="12.98" y="93.78" width="1.56" height="1.56"/><rect class="cls-4" x="16.09" y="93.78" width="1.56" height="1.56"/><rect class="cls-4" x="12.98" y="95.33" width="1.56" height="1.56"/><rect class="cls-4" x="16.09" y="95.33" width="1.56" height="1.56"/><rect class="cls-4" x="12.98" y="96.89" width="1.56" height="1.56"/><rect class="cls-4" x="16.09" y="96.89" width="1.56" height="1.56"/><rect class="cls-3" x="12.98" y="82.88" width="1.56" height="1.56"/><rect class="cls-3" x="14.53" y="82.88" width="1.56" height="1.56"/><rect class="cls-2" x="16.09" y="82.88" width="1.56" height="1.56"/><rect class="cls-5" x="17.64" y="84.44" width="1.56" height="1.56"/><rect class="cls-6" x="17.64" y="82.88" width="1.56" height="1.56"/><rect class="cls-2" x="14.53" y="89.11" width="1.56" height="1.56"/><rect class="cls-2" x="12.98" y="89.11" width="1.56" height="1.56"/><rect class="cls-2" x="14.53" y="87.55" width="1.56" height="1.56"/><rect class="cls-2" x="12.98" y="87.55" width="1.56" height="1.56"/><rect class="cls-2" x="16.09" y="89.11" width="1.56" height="1.56"/><rect class="cls-2" x="16.09" y="87.55" width="1.56" height="1.56"/><rect class="cls-2" x="14.53" y="86" width="1.56" height="1.56"/><rect class="cls-2" x="14.53" y="84.44" width="1.56" height="1.56"/><rect class="cls-2" x="16.09" y="86" width="1.56" height="1.56"/><rect class="cls-2" x="16.09" y="84.44" width="1.56" height="1.56"/><rect class="cls-2" x="16.09" y="82.88" width="1.56" height="1.56"/><rect class="cls-2" x="12.98" y="86" width="1.56" height="1.56"/><rect class="cls-2" x="12.98" y="84.44" width="1.56" height="1.56"/><rect class="cls-2" x="12.98" y="82.88" width="1.56" height="1.56"/><rect class="cls-4" x="14.53" y="90.66" width="1.56" height="1.56"/><rect class="cls-4" x="12.98" y="90.66" width="1.56" height="1.56"/><rect class="cls-4" x="16.09" y="90.66" width="1.56" height="1.56"/><rect class="cls-4" x="12.98" y="92.22" width="1.56" height="1.56"/><rect class="cls-4" x="16.09" y="92.22" width="1.56" height="1.56"/><rect class="cls-1" x="17.64" y="82.88" width="1.56" height="1.56"/><rect class="cls-1" x="17.64" y="84.44" width="1.56" height="1.56"/><rect class="cls-1" x="17.64" y="86" width="1.56" height="1.56"/><rect class="cls-1" x="17.64" y="87.55" width="1.56" height="1.56"/><rect class="cls-1" x="17.64" y="89.11" width="1.56" height="1.56"/><rect class="cls-1" x="11.42" y="82.88" width="1.56" height="1.56"/><rect class="cls-1" x="11.42" y="84.44" width="1.56" height="1.56"/><rect class="cls-1" x="11.42" y="86" width="1.56" height="1.56"/><rect class="cls-1" x="11.42" y="87.55" width="1.56" height="1.56"/><rect class="cls-1" x="11.42" y="89.11" width="1.56" height="1.56"/><rect class="cls-2" x="14.53" y="82.88" width="1.56" height="1.56"/><rect class="cls-1" x="14.53" y="81.33" width="1.56" height="1.56"/><rect class="cls-1" x="16.09" y="79.77" width="1.56" height="1.56"/><rect class="cls-1" x="14.53" y="79.77" width="1.56" height="1.56"/><rect class="cls-1" x="12.98" y="79.77" width="1.56" height="1.56"/><rect class="cls-1" x="16.09" y="78.22" width="1.56" height="1.56"/><rect class="cls-1" x="14.53" y="78.22" width="1.56" height="1.56"/><rect class="cls-1" x="12.98" y="78.22" width="1.56" height="1.56"/><rect class="cls-1" x="16.09" y="76.66" width="1.56" height="1.56"/><rect class="cls-1" x="14.53" y="76.66" width="1.56" height="1.56"/><rect class="cls-1" x="12.98" y="76.66" width="1.56" height="1.56"/><rect class="cls-1" x="12.98" y="76.66" width="1.56" height="1.56"/><rect class="cls-2" x="79" y="34.49" width="1.56" height="1.56"/><rect class="cls-3" x="80.55" y="34.49" width="1.56" height="1.56"/><rect class="cls-2" x="82.11" y="34.49" width="1.56" height="1.56"/><rect class="cls-2" x="79" y="37.61" width="1.56" height="1.56"/><rect class="cls-2" x="82.11" y="37.61" width="1.56" height="1.56"/><rect class="cls-2" x="79" y="36.05" width="1.56" height="1.56"/><rect class="cls-2" x="82.11" y="36.05" width="1.56" height="1.56"/><rect class="cls-2" x="79" y="39.16" width="1.56" height="1.56"/><rect class="cls-2" x="82.11" y="39.16" width="1.56" height="1.56"/><rect class="cls-2" x="79" y="32.94" width="1.56" height="1.56"/><rect class="cls-3" x="80.55" y="32.94" width="1.56" height="1.56"/><rect class="cls-2" x="82.11" y="32.94" width="1.56" height="1.56"/><rect class="cls-7" x="80.55" y="39.16" width="1.56" height="1.56"/><rect class="cls-2" x="79" y="39.16" width="1.56" height="1.56"/><rect class="cls-7" x="80.55" y="37.61" width="1.56" height="1.56"/><rect class="cls-2" x="79" y="37.61" width="1.56" height="1.56"/><rect class="cls-2" x="82.11" y="39.16" width="1.56" height="1.56"/><rect class="cls-2" x="82.11" y="37.61" width="1.56" height="1.56"/><rect class="cls-7" x="80.55" y="36.05" width="1.56" height="1.56"/><rect class="cls-1" x="80.55" y="34.49" width="1.56" height="1.56"/><rect class="cls-2" x="82.11" y="36.05" width="1.56" height="1.56"/><rect class="cls-2" x="82.11" y="34.49" width="1.56" height="1.56"/><rect class="cls-2" x="82.11" y="32.94" width="1.56" height="1.56"/><rect class="cls-2" x="79" y="36.05" width="1.56" height="1.56"/><rect class="cls-2" x="79" y="34.49" width="1.56" height="1.56"/><rect class="cls-2" x="79" y="32.94" width="1.56" height="1.56"/><rect class="cls-8" x="80.55" y="40.72" width="1.56" height="1.56"/><g id="Left_Shoe-2" data-name="Left Shoe"><rect x="80.55" y="48.5" width="1.56" height="1.56"/><rect x="82.11" y="48.5" width="1.56" height="1.56"/></g><rect class="cls-3" x="80.55" y="40.72" width="1.56" height="1.56"/><rect class="cls-4" x="80.55" y="42.27" width="1.56" height="1.56"/><rect class="cls-4" x="80.55" y="43.83" width="1.56" height="1.56"/><rect class="cls-4" x="80.55" y="45.39" width="1.56" height="1.56"/><rect class="cls-4" x="80.55" y="46.94" width="1.56" height="1.56"/><rect class="cls-8" x="80.55" y="40.72" width="1.56" height="1.56"/><rect class="cls-4" x="82.11" y="40.72" width="1.56" height="1.56"/><rect class="cls-8" x="79" y="40.72" width="1.56" height="1.56"/><rect class="cls-3" x="79" y="40.72" width="1.56" height="1.56"/><rect class="cls-4" x="79" y="40.72" width="1.56" height="1.56"/><rect class="cls-4" x="80.55" y="42.27" width="1.56" height="1.56"/><rect class="cls-1" x="80.55" y="32.94" width="1.56" height="1.56"/><rect class="cls-1" x="80.55" y="36.05" width="1.56" height="1.56"/><rect class="cls-1" x="80.55" y="37.61" width="1.56" height="1.56"/><rect class="cls-1" x="80.55" y="39.16" width="1.56" height="1.56"/><rect class="cls-1" x="80.55" y="40.72" width="1.56" height="1.56"/><rect class="cls-2" x="80.55" y="32.94" width="1.56" height="1.56"/><rect class="cls-1" x="80.55" y="31.38" width="1.56" height="1.56"/><rect class="cls-1" x="82.11" y="29.83" width="1.56" height="1.56"/><rect class="cls-1" x="80.55" y="29.83" width="1.56" height="1.56"/><rect class="cls-1" x="79" y="29.83" width="1.56" height="1.56"/><rect class="cls-1" x="82.11" y="28.27" width="1.56" height="1.56"/><rect class="cls-1" x="80.55" y="28.27" width="1.56" height="1.56"/><rect class="cls-1" x="79" y="28.27" width="1.56" height="1.56"/><rect class="cls-1" x="82.11" y="26.71" width="1.56" height="1.56"/><rect class="cls-1" x="80.55" y="26.71" width="1.56" height="1.56"/><rect class="cls-1" x="79" y="26.71" width="1.56" height="1.56"/><rect x="12.82" y="47.82" width="1.56" height="1.56"/><rect x="11.26" y="47.82" width="1.56" height="1.56"/><rect class="cls-5" x="14.68" y="34.4" width="1.56" height="1.56"/><rect class="cls-5" x="16.23" y="34.4" width="1.56" height="1.56"/><rect class="cls-5" x="16.96" y="35.96" width="1.56" height="1.56"/><rect class="cls-5" x="14.44" y="39.07" width="1.56" height="1.56"/><rect class="cls-4" x="17.57" y="40.63" width="1.56" height="1.56"/><rect class="cls-4" x="16.01" y="40.63" width="1.56" height="1.56"/><rect class="cls-4" x="14.44" y="40.63" width="1.56" height="1.56"/><rect class="cls-4" x="18.35" y="41.6" width="1.56" height="1.56"/><rect class="cls-4" x="14.01" y="41.6" width="1.56" height="1.56"/><rect class="cls-4" x="18.35" y="43.16" width="1.56" height="1.56"/><rect class="cls-4" x="13.23" y="43.16" width="1.56" height="1.56"/><rect class="cls-4" x="18.35" y="44.71" width="1.56" height="1.56"/><rect class="cls-4" x="12.45" y="44.71" width="1.56" height="1.56"/><rect x="18.36" y="47.79" width="1.56" height="1.56"/><rect x="19.91" y="47.2" width="1.56" height="1.56"/><rect class="cls-4" x="18.36" y="46.23" width="1.56" height="1.56"/><rect class="cls-4" x="11.67" y="46.27" width="1.56" height="1.56"/><rect class="cls-6" x="14.68" y="32.85" width="1.56" height="1.56"/><rect class="cls-6" x="16.23" y="32.85" width="1.56" height="1.56"/><rect class="cls-1" x="15.96" y="28.18" width="1.56" height="1.56"/><rect class="cls-1" x="14.63" y="34.4" width="1.56" height="1.56"/><rect class="cls-1" x="13.07" y="35.18" width="1.56" height="1.56"/><rect class="cls-1" x="12.3" y="36.74" width="1.56" height="1.56"/><rect class="cls-1" x="11.52" y="38.29" width="1.56" height="1.56"/><rect class="cls-3" x="14.41" y="34.4" width="1.56" height="1.56"/><rect class="cls-3" x="15.96" y="34.4" width="1.56" height="1.56"/><rect class="cls-3" x="17.52" y="34.4" width="1.56" height="1.56"/><rect class="cls-3" x="14.41" y="37.52" width="1.56" height="1.56"/><rect class="cls-3" x="17.52" y="37.52" width="1.56" height="1.56"/><rect class="cls-3" x="14.41" y="35.96" width="1.56" height="1.56"/><rect class="cls-3" x="17.52" y="35.96" width="1.56" height="1.56"/><rect class="cls-3" x="14.41" y="39.07" width="1.56" height="1.56"/><rect class="cls-3" x="17.52" y="39.07" width="1.56" height="1.56"/><rect class="cls-3" x="14.41" y="32.85" width="1.56" height="1.56"/><rect class="cls-3" x="15.96" y="32.85" width="1.56" height="1.56"/><rect class="cls-3" x="17.52" y="32.85" width="1.56" height="1.56"/><rect class="cls-2" x="15.96" y="39.07" width="1.56" height="1.56"/><rect class="cls-2" x="14.41" y="39.07" width="1.56" height="1.56"/><rect class="cls-2" x="15.96" y="37.52" width="1.56" height="1.56"/><rect class="cls-2" x="14.41" y="37.52" width="1.56" height="1.56"/><rect class="cls-2" x="17.52" y="39.07" width="1.56" height="1.56"/><rect class="cls-7" x="17.52" y="37.52" width="1.56" height="1.56"/><rect class="cls-2" x="15.96" y="35.96" width="1.56" height="1.56"/><rect class="cls-7" x="15.96" y="34.4" width="1.56" height="1.56"/><rect class="cls-2" x="17.52" y="35.96" width="1.56" height="1.56"/><rect class="cls-2" x="17.52" y="34.4" width="1.56" height="1.56"/><rect class="cls-2" x="17.52" y="32.85" width="1.56" height="1.56"/><rect class="cls-2" x="14.41" y="35.96" width="1.56" height="1.56"/><rect class="cls-2" x="14.41" y="34.4" width="1.56" height="1.56"/><rect class="cls-2" x="14.41" y="32.85" width="1.56" height="1.56"/><rect class="cls-2" x="15.96" y="32.85" width="1.56" height="1.56"/><rect class="cls-1" x="15.96" y="31.29" width="1.56" height="1.56"/><rect class="cls-1" x="17.52" y="29.74" width="1.56" height="1.56"/><rect class="cls-1" x="15.96" y="29.74" width="1.56" height="1.56"/><rect class="cls-1" x="14.41" y="29.74" width="1.56" height="1.56"/><rect class="cls-1" x="14.41" y="28.18" width="1.56" height="1.56"/><rect class="cls-1" x="17.52" y="28.18" width="1.56" height="1.56"/><rect class="cls-1" x="17.52" y="26.63" width="1.56" height="1.56"/><rect class="cls-1" x="15.96" y="26.63" width="1.56" height="1.56"/><rect class="cls-1" x="14.41" y="26.63" width="1.56" height="1.56"/><rect class="cls-1" x="16.01" y="34.4" width="1.56" height="1.56"/><rect class="cls-1" x="16.77" y="35.96" width="1.56" height="1.56"/><rect class="cls-1" x="17.57" y="37.52" width="1.56" height="1.56"/><rect class="cls-1" x="19.05" y="38.59" width="1.56" height="1.56"/><rect x="43.15" y="48.44" width="1.56" height="1.56"/><rect x="41.6" y="47.82" width="1.56" height="1.56"/><rect class="cls-5" x="45.02" y="34.4" width="1.56" height="1.56"/><rect class="cls-5" x="46.57" y="34.4" width="1.56" height="1.56"/><rect class="cls-5" x="47.3" y="35.96" width="1.56" height="1.56"/><rect class="cls-5" x="44.78" y="39.07" width="1.56" height="1.56"/><rect class="cls-4" x="47.91" y="40.63" width="1.56" height="1.56"/><rect class="cls-4" x="46.35" y="40.63" width="1.56" height="1.56"/><rect class="cls-4" x="44.78" y="40.63" width="1.56" height="1.56"/><rect class="cls-4" x="48.69" y="41.6" width="1.56" height="1.56"/><rect class="cls-4" x="44.35" y="41.6" width="1.56" height="1.56"/><rect class="cls-4" x="48.69" y="43.16" width="1.56" height="1.56"/><rect class="cls-4" x="43.57" y="43.16" width="1.56" height="1.56"/><rect class="cls-4" x="48.69" y="44.71" width="1.56" height="1.56"/><rect class="cls-4" x="42.79" y="44.71" width="1.56" height="1.56"/><rect x="48.7" y="47.79" width="1.56" height="1.56"/><rect x="50.25" y="47.2" width="1.56" height="1.56"/><rect class="cls-4" x="48.7" y="46.23" width="1.56" height="1.56"/><rect class="cls-4" x="42.01" y="46.27" width="1.56" height="1.56"/><rect class="cls-6" x="45.02" y="32.85" width="1.56" height="1.56"/><rect class="cls-6" x="46.57" y="32.85" width="1.56" height="1.56"/><rect class="cls-1" x="46.3" y="28.18" width="1.56" height="1.56"/><rect class="cls-1" x="44.97" y="34.4" width="1.56" height="1.56"/><rect class="cls-3" x="44.75" y="34.4" width="1.56" height="1.56"/><rect class="cls-3" x="46.3" y="34.4" width="1.56" height="1.56"/><rect class="cls-3" x="47.86" y="34.4" width="1.56" height="1.56"/><rect class="cls-3" x="44.75" y="37.52" width="1.56" height="1.56"/><rect class="cls-3" x="47.86" y="37.52" width="1.56" height="1.56"/><rect class="cls-3" x="44.75" y="35.96" width="1.56" height="1.56"/><rect class="cls-3" x="47.86" y="35.96" width="1.56" height="1.56"/><rect class="cls-3" x="44.75" y="39.07" width="1.56" height="1.56"/><rect class="cls-3" x="47.86" y="39.07" width="1.56" height="1.56"/><rect class="cls-3" x="44.75" y="32.85" width="1.56" height="1.56"/><rect class="cls-3" x="46.3" y="32.85" width="1.56" height="1.56"/><rect class="cls-3" x="47.86" y="32.85" width="1.56" height="1.56"/><rect class="cls-2" x="46.3" y="39.07" width="1.56" height="1.56"/><rect class="cls-2" x="44.75" y="39.07" width="1.56" height="1.56"/><rect class="cls-2" x="46.3" y="37.52" width="1.56" height="1.56"/><rect class="cls-2" x="44.75" y="37.52" width="1.56" height="1.56"/><rect class="cls-2" x="47.86" y="39.07" width="1.56" height="1.56"/><rect class="cls-2" x="47.86" y="37.52" width="1.56" height="1.56"/><rect class="cls-2" x="46.3" y="35.96" width="1.56" height="1.56"/><rect class="cls-2" x="46.3" y="34.4" width="1.56" height="1.56"/><rect class="cls-2" x="47.86" y="35.96" width="1.56" height="1.56"/><rect class="cls-2" x="47.86" y="34.4" width="1.56" height="1.56"/><rect class="cls-2" x="47.86" y="32.85" width="1.56" height="1.56"/><rect class="cls-2" x="44.75" y="35.96" width="1.56" height="1.56"/><rect class="cls-2" x="44.75" y="34.4" width="1.56" height="1.56"/><rect class="cls-2" x="44.75" y="32.85" width="1.56" height="1.56"/><rect class="cls-2" x="46.3" y="32.85" width="1.56" height="1.56"/><rect class="cls-1" x="46.3" y="31.29" width="1.56" height="1.56"/><rect class="cls-1" x="47.86" y="29.74" width="1.56" height="1.56"/><rect class="cls-1" x="46.3" y="29.74" width="1.56" height="1.56"/><rect class="cls-1" x="44.75" y="29.74" width="1.56" height="1.56"/><rect class="cls-1" x="47.86" y="28.18" width="1.56" height="1.56"/><rect class="cls-1" x="44.75" y="28.18" width="1.56" height="1.56"/><rect class="cls-1" x="47.86" y="26.63" width="1.56" height="1.56"/><rect class="cls-1" x="46.3" y="26.63" width="1.56" height="1.56"/><rect class="cls-1" x="44.75" y="26.63" width="1.56" height="1.56"/><rect x="106.44" y="47.69" width="1.56" height="1.56"/><rect x="104.89" y="47.69" width="1.56" height="1.56"/><rect class="cls-2" x="108.3" y="34.27" width="1.56" height="1.56"/><rect class="cls-2" x="109.86" y="34.27" width="1.56" height="1.56"/><rect class="cls-2" x="110.59" y="35.83" width="1.56" height="1.56"/><rect class="cls-2" x="108.07" y="38.94" width="1.56" height="1.56"/><rect class="cls-4" x="111.19" y="40.5" width="1.56" height="1.56"/><rect class="cls-4" x="109.64" y="40.5" width="1.56" height="1.56"/><rect class="cls-4" x="108.07" y="40.5" width="1.56" height="1.56"/><rect class="cls-4" x="111.97" y="41.47" width="1.56" height="1.56"/><rect class="cls-4" x="107.63" y="41.47" width="1.56" height="1.56"/><rect class="cls-4" x="111.97" y="43.03" width="1.56" height="1.56"/><rect class="cls-4" x="106.85" y="43.03" width="1.56" height="1.56"/><rect class="cls-4" x="111.97" y="44.58" width="1.56" height="1.56"/><rect class="cls-4" x="106.08" y="44.58" width="1.56" height="1.56"/><rect x="111.98" y="47.66" width="1.56" height="1.56"/><rect x="113.54" y="47.07" width="1.56" height="1.56"/><rect class="cls-4" x="111.98" y="46.1" width="1.56" height="1.56"/><rect class="cls-4" x="105.3" y="46.14" width="1.56" height="1.56"/><rect class="cls-6" x="108.3" y="32.72" width="1.56" height="1.56"/><rect class="cls-6" x="109.86" y="32.72" width="1.56" height="1.56"/><rect class="cls-1" x="109.59" y="26.49" width="1.56" height="1.56"/><rect class="cls-2" x="108.26" y="34.27" width="1.56" height="1.56"/><rect class="cls-2" x="108.03" y="34.27" width="1.56" height="1.56"/><rect class="cls-2" x="109.59" y="34.27" width="1.56" height="1.56"/><rect class="cls-2" x="111.15" y="34.27" width="1.56" height="1.56"/><rect class="cls-2" x="108.03" y="37.39" width="1.56" height="1.56"/><rect class="cls-2" x="111.15" y="37.39" width="1.56" height="1.56"/><rect class="cls-2" x="108.03" y="35.83" width="1.56" height="1.56"/><rect class="cls-2" x="111.15" y="35.83" width="1.56" height="1.56"/><rect class="cls-2" x="108.03" y="38.94" width="1.56" height="1.56"/><rect class="cls-2" x="111.15" y="38.94" width="1.56" height="1.56"/><rect class="cls-3" x="108.03" y="32.72" width="1.56" height="1.56"/><rect class="cls-3" x="109.59" y="32.72" width="1.56" height="1.56"/><rect class="cls-3" x="111.15" y="32.72" width="1.56" height="1.56"/><rect class="cls-2" x="109.59" y="38.94" width="1.56" height="1.56"/><rect class="cls-2" x="108.03" y="38.94" width="1.56" height="1.56"/><rect class="cls-2" x="109.59" y="37.39" width="1.56" height="1.56"/><rect class="cls-2" x="108.03" y="37.39" width="1.56" height="1.56"/><rect class="cls-2" x="111.15" y="38.94" width="1.56" height="1.56"/><rect class="cls-2" x="111.15" y="37.39" width="1.56" height="1.56"/><rect class="cls-2" x="109.59" y="35.83" width="1.56" height="1.56"/><rect class="cls-2" x="109.59" y="34.27" width="1.56" height="1.56"/><rect class="cls-2" x="111.15" y="35.83" width="1.56" height="1.56"/><rect class="cls-2" x="111.15" y="34.27" width="1.56" height="1.56"/><rect class="cls-2" x="111.13" y="32.73" width="1.55" height="1.55"/><rect class="cls-2" x="108.03" y="35.83" width="1.55" height="1.55"/><rect class="cls-2" x="108.03" y="34.28" width="1.55" height="1.55"/><rect class="cls-2" x="108.03" y="32.73" width="1.55" height="1.55"/><rect class="cls-2" x="109.58" y="32.73" width="1.55" height="1.55"/><rect class="cls-1" x="109.59" y="31.16" width="1.56" height="1.56"/><rect class="cls-1" x="111.15" y="29.61" width="1.56" height="1.56"/><rect class="cls-1" x="109.59" y="29.61" width="1.56" height="1.56"/><rect class="cls-1" x="108.03" y="29.61" width="1.56" height="1.56"/><rect class="cls-1" x="111.15" y="28.05" width="1.56" height="1.56"/><rect class="cls-1" x="109.59" y="28.05" width="1.56" height="1.56"/><rect class="cls-1" x="108.03" y="28.05" width="1.56" height="1.56"/><rect class="cls-1" x="111.15" y="26.49" width="1.56" height="1.56"/><rect class="cls-1" x="108.03" y="26.49" width="1.56" height="1.56"/><rect class="cls-1" x="46.52" y="34.33" width="1.56" height="1.56" transform="translate(-5.01 8.03) rotate(-9.21)"/><rect class="cls-1" x="48.02" y="35.67" width="1.56" height="1.56" transform="translate(-5.21 8.28) rotate(-9.21)"/><rect class="cls-1" x="49.32" y="37.03" width="1.56" height="1.56" transform="translate(-5.41 8.51) rotate(-9.21)"/><rect class="cls-1" x="50.75" y="38.37" width="1.56" height="1.56" transform="translate(-5.6 8.76) rotate(-9.21)"/><rect x="137.74" y="48.44" width="1.56" height="1.56"/><rect x="136.18" y="47.86" width="1.56" height="1.56"/><rect class="cls-5" x="139.6" y="34.44" width="1.56" height="1.56"/><rect class="cls-5" x="141.16" y="34.44" width="1.56" height="1.56"/><rect class="cls-5" x="141.89" y="36" width="1.56" height="1.56"/><rect class="cls-5" x="139.37" y="39.11" width="1.56" height="1.56"/><rect class="cls-4" x="142.49" y="40.66" width="1.56" height="1.56"/><rect class="cls-4" x="140.93" y="40.66" width="1.56" height="1.56"/><rect class="cls-4" x="139.37" y="40.66" width="1.56" height="1.56"/><rect class="cls-4" x="143.27" y="41.64" width="1.56" height="1.56"/><rect class="cls-4" x="138.93" y="41.64" width="1.56" height="1.56"/><rect class="cls-4" x="143.27" y="43.19" width="1.56" height="1.56"/><rect class="cls-4" x="138.15" y="43.19" width="1.56" height="1.56"/><rect class="cls-4" x="143.27" y="44.75" width="1.56" height="1.56"/><rect class="cls-4" x="137.37" y="44.75" width="1.56" height="1.56"/><rect x="143.28" y="47.82" width="1.56" height="1.56"/><rect x="144.84" y="47.24" width="1.56" height="1.56"/><rect class="cls-4" x="143.28" y="46.27" width="1.56" height="1.56"/><rect class="cls-4" x="136.6" y="46.3" width="1.56" height="1.56"/><rect class="cls-6" x="139.6" y="32.88" width="1.56" height="1.56"/><rect class="cls-6" x="141.16" y="32.88" width="1.56" height="1.56"/><rect class="cls-1" x="139.6" y="28.22" width="1.56" height="1.56"/><rect class="cls-1" x="139.6" y="26.66" width="1.56" height="1.56"/><rect class="cls-1" x="141.16" y="28.22" width="1.56" height="1.56"/><rect class="cls-1" x="141.16" y="26.66" width="1.56" height="1.56"/><rect class="cls-1" x="139.6" y="29.77" width="1.56" height="1.56"/><rect class="cls-1" x="140.35" y="26.66" width="1.56" height="1.56"/><rect class="cls-1" x="141.13" y="28.22" width="1.56" height="1.56"/><rect class="cls-1" x="139.55" y="34.44" width="1.56" height="1.56"/><rect class="cls-3" x="139.33" y="34.44" width="1.56" height="1.56"/><rect class="cls-3" x="140.89" y="34.44" width="1.56" height="1.56"/><rect class="cls-3" x="142.44" y="34.44" width="1.56" height="1.56"/><rect class="cls-3" x="139.33" y="37.55" width="1.56" height="1.56"/><rect class="cls-3" x="142.44" y="37.55" width="1.56" height="1.56"/><rect class="cls-3" x="139.33" y="36" width="1.56" height="1.56"/><rect class="cls-3" x="142.44" y="36" width="1.56" height="1.56"/><rect class="cls-3" x="139.33" y="39.11" width="1.56" height="1.56"/><rect class="cls-3" x="142.44" y="39.11" width="1.56" height="1.56"/><rect class="cls-3" x="139.33" y="32.88" width="1.56" height="1.56"/><rect class="cls-3" x="140.89" y="32.88" width="1.56" height="1.56"/><rect class="cls-3" x="142.44" y="32.88" width="1.56" height="1.56"/><rect class="cls-2" x="140.89" y="39.11" width="1.56" height="1.56"/><rect class="cls-2" x="139.33" y="39.11" width="1.56" height="1.56"/><rect class="cls-2" x="140.89" y="37.55" width="1.56" height="1.56"/><rect class="cls-2" x="139.33" y="37.55" width="1.56" height="1.56"/><rect class="cls-2" x="142.44" y="39.11" width="1.56" height="1.56"/><rect class="cls-2" x="142.44" y="37.55" width="1.56" height="1.56"/><rect class="cls-2" x="140.89" y="36" width="1.56" height="1.56"/><rect class="cls-2" x="140.89" y="34.44" width="1.56" height="1.56"/><rect class="cls-2" x="142.44" y="36" width="1.56" height="1.56"/><rect class="cls-2" x="142.44" y="34.44" width="1.56" height="1.56"/><rect class="cls-2" x="142.44" y="32.88" width="1.56" height="1.56"/><rect class="cls-2" x="139.33" y="36" width="1.56" height="1.56"/><rect class="cls-2" x="139.33" y="34.44" width="1.56" height="1.56"/><rect class="cls-2" x="139.33" y="32.88" width="1.56" height="1.56"/><rect class="cls-2" x="140.89" y="32.88" width="1.56" height="1.56"/><rect class="cls-1" x="140.89" y="31.33" width="1.56" height="1.56"/><rect class="cls-1" x="142.44" y="29.77" width="1.56" height="1.56"/><rect class="cls-1" x="140.89" y="29.77" width="1.56" height="1.56"/><rect class="cls-1" x="139.33" y="29.77" width="1.56" height="1.56"/><rect class="cls-1" x="142.44" y="28.22" width="1.56" height="1.56"/><rect class="cls-1" x="140.89" y="28.22" width="1.56" height="1.56"/><rect class="cls-1" x="139.33" y="28.22" width="1.56" height="1.56"/><rect class="cls-1" x="142.44" y="26.66" width="1.56" height="1.56"/><rect class="cls-1" x="140.89" y="26.66" width="1.56" height="1.56"/><rect class="cls-1" x="139.33" y="26.66" width="1.56" height="1.56"/><g id="Right_Shoe-2" data-name="Right Shoe"><rect x="45.06" y="98.44" width="1.56" height="1.56"/><rect x="46.61" y="98.44" width="1.56" height="1.56"/></g><g id="Left_Shoe-3" data-name="Left Shoe"><rect x="48.17" y="98.44" width="1.56" height="1.56"/><rect x="49.72" y="98.44" width="1.56" height="1.56"/></g><rect class="cls-4" x="45.06" y="90.66" width="1.56" height="1.56"/><rect class="cls-4" x="48.17" y="90.66" width="1.56" height="1.56"/><rect class="cls-4" x="45.06" y="92.22" width="1.56" height="1.56"/><rect class="cls-4" x="48.17" y="92.22" width="1.56" height="1.56"/><rect class="cls-4" x="45.06" y="93.78" width="1.56" height="1.56"/><rect class="cls-4" x="48.17" y="93.78" width="1.56" height="1.56"/><rect class="cls-4" x="45.06" y="95.33" width="1.56" height="1.56"/><rect class="cls-4" x="48.17" y="95.33" width="1.56" height="1.56"/><rect class="cls-4" x="45.06" y="96.89" width="1.56" height="1.56"/><rect class="cls-4" x="48.17" y="96.89" width="1.56" height="1.56"/><rect class="cls-4" x="46.61" y="90.66" width="1.56" height="1.56"/><rect class="cls-4" x="45.06" y="90.66" width="1.56" height="1.56"/><rect class="cls-4" x="48.17" y="90.66" width="1.56" height="1.56"/><rect class="cls-4" x="45.06" y="92.22" width="1.56" height="1.56"/><rect class="cls-4" x="48.17" y="92.22" width="1.56" height="1.56"/><rect class="cls-2" x="45.33" y="84.44" width="1.56" height="1.56"/><rect class="cls-5" x="46.88" y="84.44" width="1.56" height="1.56"/><rect class="cls-5" x="47.61" y="86" width="1.56" height="1.56"/><rect class="cls-2" x="45.09" y="89.11" width="1.56" height="1.56"/><rect class="cls-2" x="45.33" y="82.88" width="1.56" height="1.56"/><rect class="cls-2" x="46.88" y="82.88" width="1.56" height="1.56"/><rect class="cls-2" x="45.06" y="84.44" width="1.56" height="1.56"/><rect class="cls-3" x="46.61" y="84.44" width="1.56" height="1.56"/><rect class="cls-3" x="48.17" y="84.44" width="1.56" height="1.56"/><rect class="cls-2" x="45.06" y="87.55" width="1.56" height="1.56"/><rect class="cls-3" x="48.17" y="87.55" width="1.56" height="1.56"/><rect class="cls-2" x="45.06" y="86" width="1.56" height="1.56"/><rect class="cls-3" x="48.17" y="86" width="1.56" height="1.56"/><rect class="cls-2" x="45.06" y="89.11" width="1.56" height="1.56"/><rect class="cls-3" x="48.17" y="89.11" width="1.56" height="1.56"/><rect class="cls-2" x="45.06" y="82.88" width="1.56" height="1.56"/><rect class="cls-2" x="46.61" y="82.88" width="1.56" height="1.56"/><rect class="cls-2" x="48.17" y="82.88" width="1.56" height="1.56"/><rect class="cls-2" x="46.61" y="89.11" width="1.56" height="1.56"/><rect class="cls-2" x="45.06" y="89.11" width="1.56" height="1.56"/><rect class="cls-2" x="46.61" y="87.55" width="1.56" height="1.56"/><rect class="cls-2" x="45.06" y="87.55" width="1.56" height="1.56"/><rect class="cls-2" x="48.17" y="89.11" width="1.56" height="1.56"/><rect class="cls-2" x="48.17" y="87.55" width="1.56" height="1.56"/><rect class="cls-2" x="46.61" y="86" width="1.56" height="1.56"/><rect class="cls-7" x="46.61" y="84.44" width="1.56" height="1.56"/><rect class="cls-2" x="48.17" y="86" width="1.56" height="1.56"/><rect class="cls-2" x="48.17" y="84.44" width="1.56" height="1.56"/><rect class="cls-2" x="48.17" y="82.88" width="1.56" height="1.56"/><rect class="cls-2" x="45.06" y="86" width="1.56" height="1.56"/><rect class="cls-2" x="45.06" y="84.44" width="1.56" height="1.56"/><rect class="cls-2" x="45.06" y="82.88" width="1.56" height="1.56"/><rect class="cls-2" x="46.61" y="82.88" width="1.56" height="1.56"/><rect class="cls-1" x="46.61" y="81.33" width="1.56" height="1.56"/><rect class="cls-1" x="48.17" y="79.77" width="1.56" height="1.56"/><rect class="cls-1" x="46.61" y="79.77" width="1.56" height="1.56"/><rect class="cls-1" x="45.06" y="79.77" width="1.56" height="1.56"/><rect class="cls-1" x="48.17" y="78.22" width="1.56" height="1.56"/><rect class="cls-1" x="46.61" y="78.22" width="1.56" height="1.56"/><rect class="cls-1" x="45.06" y="78.22" width="1.56" height="1.56"/><rect class="cls-1" x="48.17" y="76.66" width="1.56" height="1.56"/><rect class="cls-1" x="46.61" y="76.66" width="1.56" height="1.56"/><rect class="cls-1" x="45.06" y="76.66" width="1.56" height="1.56"/><rect class="cls-1" x="45.06" y="76.66" width="1.56" height="1.56"/><rect class="cls-1" x="46.6" y="84.44" width="1.56" height="1.56"/><rect class="cls-1" x="47.68" y="86" width="1.56" height="1.56"/><rect class="cls-1" x="48.69" y="87.55" width="1.56" height="1.56"/><rect class="cls-1" x="50.17" y="88.58" width="1.56" height="1.56"/><rect class="cls-1" x="109.61" y="34.33" width="1.56" height="1.56"/><rect class="cls-1" x="108.84" y="35.88" width="1.56" height="1.56"/><rect class="cls-1" x="108.06" y="37.44" width="1.56" height="1.56"/><rect class="cls-1" x="107.22" y="39" width="1.56" height="1.56"/><rect class="cls-1" x="140.71" y="34.63" width="1.56" height="1.56" transform="translate(67 160.81) rotate(-73.34)"/><rect class="cls-1" x="139.52" y="35.9" width="1.56" height="1.56" transform="translate(64.94 160.57) rotate(-73.34)"/><rect class="cls-1" x="138.33" y="37.17" width="1.56" height="1.56" transform="translate(62.87 160.33) rotate(-73.34)"/><rect class="cls-1" x="137.15" y="38.4" width="1.56" height="1.56" transform="translate(60.85 160.08) rotate(-73.34)"/></svg>