<svg id="Layer_1" data-name="Layer 1" xmlns="http://www.w3.org/2000/svg" viewBox="0 0 160.01 100"><defs><style>.cls-1{fill:#1d1d1b;}.cls-2{fill:#314d9c;}.cls-3{fill:#9e6f13;}.cls-4{fill:#f9d2b0;}.cls-5{fill:#ada130;}</style></defs><g id="Right_Shoe" data-name="Right Shoe"><rect class="cls-1" x="45.03" y="98.05" width="2" height="2"/><rect class="cls-1" x="47.03" y="98.05" width="2" height="2"/></g><g id="Left_Shoe" data-name="Left Shoe"><rect class="cls-1" x="49.03" y="98.05" width="2" height="2"/><rect class="cls-1" x="51.03" y="98.05" width="2" height="2"/></g><g id="Legs"><rect class="cls-2" x="45.03" y="80.05" width="2" height="2"/><rect class="cls-2" x="47.03" y="80.05" width="2" height="2"/><rect class="cls-2" x="49.03" y="80.05" width="2" height="2"/><rect class="cls-2" x="45.03" y="84.05" width="2" height="2"/><rect class="cls-2" x="49.03" y="84.05" width="2" height="2"/><rect class="cls-2" x="45.03" y="82.05" width="2" height="2"/><rect class="cls-2" x="49.03" y="82.05" width="2" height="2"/><rect class="cls-2" x="45.03" y="86.05" width="2" height="2"/><rect class="cls-2" x="49.03" y="86.05" width="2" height="2"/><rect class="cls-2" x="45.03" y="88.05" width="2" height="2"/><rect class="cls-2" x="49.03" y="88.05" width="2" height="2"/><rect class="cls-2" x="45.03" y="90.05" width="2" height="2"/><rect class="cls-2" x="49.03" y="90.05" width="2" height="2"/><rect class="cls-2" x="45.03" y="92.05" width="2" height="2"/><rect class="cls-2" x="49.03" y="92.05" width="2" height="2"/><rect class="cls-2" x="45.03" y="94.05" width="2" height="2"/><rect class="cls-2" x="49.03" y="94.05" width="2" height="2"/><rect class="cls-2" x="45.03" y="96.05" width="2" height="2"/><rect class="cls-2" x="49.03" y="96.05" width="2" height="2"/></g><g id="Torso"><rect class="cls-3" x="45.03" y="78.05" width="2" height="2"/><rect class="cls-3" x="47.03" y="78.05" width="2" height="2"/><rect class="cls-3" x="49.03" y="78.05" width="2" height="2"/><rect class="cls-1" x="47.03" y="72.05" width="2" height="2"/><rect class="cls-1" x="45.03" y="72.05" width="2" height="2"/><rect class="cls-1" x="47.03" y="70.05" width="2" height="2"/><rect class="cls-1" x="45.03" y="70.05" width="2" height="2"/><rect class="cls-1" x="49.03" y="72.05" width="2" height="2"/><rect class="cls-1" x="49.03" y="70.05" width="2" height="2"/><rect class="cls-1" x="47.03" y="68.05" width="2" height="2"/><rect class="cls-1" x="47.03" y="66.05" width="2" height="2"/><rect class="cls-1" x="49.03" y="68.05" width="2" height="2"/><rect class="cls-1" x="49.03" y="66.05" width="2" height="2"/><rect class="cls-1" x="49.03" y="64.05" width="2" height="2"/><rect class="cls-1" x="45.03" y="68.05" width="2" height="2"/><rect class="cls-1" x="45.03" y="66.05" width="2" height="2"/><rect class="cls-1" x="45.03" y="64.05" width="2" height="2"/><rect class="cls-1" x="47.03" y="74.05" width="2" height="2"/><rect class="cls-1" x="45.03" y="74.05" width="2" height="2"/><rect class="cls-1" x="49.03" y="74.05" width="2" height="2"/><rect class="cls-1" x="47.03" y="76.05" width="2" height="2"/><rect class="cls-1" x="45.03" y="76.05" width="2" height="2"/><rect class="cls-1" x="49.03" y="76.05" width="2" height="2"/></g><rect class="cls-1" x="47.03" y="64.05" width="2" height="2"/><rect class="cls-4" x="47.03" y="62.05" width="2" height="2"/><g id="Head"><rect class="cls-4" x="49.03" y="60.05" width="2" height="2"/><rect class="cls-4" x="47.03" y="60.05" width="2" height="2"/><rect class="cls-4" x="45.03" y="60.05" width="2" height="2"/><rect class="cls-4" x="49.03" y="58.05" width="2" height="2"/><rect class="cls-4" x="47.03" y="58.05" width="2" height="2"/><rect class="cls-4" x="45.03" y="58.05" width="2" height="2"/><rect class="cls-4" x="49.03" y="56.05" width="2" height="2"/><rect class="cls-4" x="47.03" y="56.05" width="2" height="2"/><rect class="cls-4" x="45.03" y="56.05" width="2" height="2"/><rect class="cls-4" x="49.03" y="54.05" width="2" height="2"/><rect class="cls-4" x="47.03" y="54.05" width="2" height="2"/><rect class="cls-4" x="45.03" y="54.05" width="2" height="2"/><rect class="cls-4" x="45.03" y="54.05" width="2" height="2"/><rect class="cls-4" x="45.03" y="56.05" width="2" height="2"/></g><rect class="cls-4" x="47.06" y="68.05" width="2" height="2"/><rect class="cls-4" x="51" y="73.05" width="2" height="2"/><rect class="cls-1" x="45.06" y="64.05" width="2" height="2"/><rect class="cls-1" x="46.06" y="66.05" width="2" height="2"/><rect class="cls-4" x="48.06" y="70.05" width="2" height="2"/><rect class="cls-4" x="49.06" y="72.05" width="2" height="2"/><rect class="cls-4" x="55" y="75.05" width="2" height="2"/><rect class="cls-4" x="53" y="74.05" width="2" height="2"/><g id="Right_Shoe-2" data-name="Right Shoe"><rect class="cls-1" x="13.02" y="98.08" width="2" height="2"/><rect class="cls-1" x="15.02" y="98.08" width="2" height="2"/></g><g id="Left_Shoe-2" data-name="Left Shoe"><rect class="cls-1" x="17.02" y="98.08" width="2" height="2"/><rect class="cls-1" x="19.02" y="98.08" width="2" height="2"/></g><g id="Legs-2" data-name="Legs"><rect class="cls-2" x="13.02" y="80.08" width="2" height="2"/><rect class="cls-2" x="15.02" y="80.08" width="2" height="2"/><rect class="cls-2" x="17.02" y="80.08" width="2" height="2"/><rect class="cls-2" x="13.02" y="84.08" width="2" height="2"/><rect class="cls-2" x="17.02" y="84.08" width="2" height="2"/><rect class="cls-2" x="13.02" y="82.08" width="2" height="2"/><rect class="cls-2" x="17.02" y="82.08" width="2" height="2"/><rect class="cls-2" x="13.02" y="86.08" width="2" height="2"/><rect class="cls-2" x="17.02" y="86.08" width="2" height="2"/><rect class="cls-2" x="13.02" y="88.08" width="2" height="2"/><rect class="cls-2" x="17.02" y="88.08" width="2" height="2"/><rect class="cls-2" x="13.02" y="90.08" width="2" height="2"/><rect class="cls-2" x="17.02" y="90.08" width="2" height="2"/><rect class="cls-2" x="13.02" y="92.08" width="2" height="2"/><rect class="cls-2" x="17.02" y="92.08" width="2" height="2"/><rect class="cls-2" x="13.02" y="94.08" width="2" height="2"/><rect class="cls-2" x="17.02" y="94.08" width="2" height="2"/><rect class="cls-2" x="13.02" y="96.08" width="2" height="2"/><rect class="cls-2" x="17.02" y="96.08" width="2" height="2"/></g><rect class="cls-3" x="13.02" y="78.08" width="2" height="2"/><rect class="cls-5" x="15.02" y="78.08" width="2" height="2"/><rect class="cls-3" x="17.02" y="78.08" width="2" height="2"/><rect class="cls-1" x="15.02" y="72.08" width="2" height="2"/><rect class="cls-1" x="13.02" y="72.08" width="2" height="2"/><rect class="cls-1" x="15.02" y="70.08" width="2" height="2"/><rect class="cls-1" x="13.02" y="70.08" width="2" height="2"/><rect class="cls-1" x="17.02" y="72.08" width="2" height="2"/><rect class="cls-1" x="17.02" y="70.08" width="2" height="2"/><rect class="cls-1" x="15.02" y="68.08" width="2" height="2"/><rect class="cls-1" x="15.02" y="66.08" width="2" height="2"/><rect class="cls-1" x="17.02" y="68.08" width="2" height="2"/><rect class="cls-1" x="17.02" y="66.08" width="2" height="2"/><rect class="cls-1" x="17.02" y="64.08" width="2" height="2"/><rect class="cls-1" x="13.02" y="68.08" width="2" height="2"/><rect class="cls-1" x="13.02" y="66.08" width="2" height="2"/><rect class="cls-1" x="13.02" y="64.08" width="2" height="2"/><rect class="cls-1" x="15.02" y="74.08" width="2" height="2"/><rect class="cls-1" x="13.02" y="74.08" width="2" height="2"/><rect class="cls-1" x="17.02" y="74.08" width="2" height="2"/><rect class="cls-1" x="15.02" y="76.08" width="2" height="2"/><rect class="cls-1" x="13.02" y="76.08" width="2" height="2"/><rect class="cls-1" x="17.02" y="76.08" width="2" height="2"/><g id="Left_Armo" data-name="Left Armo"><rect class="cls-1" x="19.02" y="64.08" width="2" height="2"/><rect class="cls-1" x="19.02" y="66.08" width="2" height="2"/><rect class="cls-1" x="19.02" y="68.08" width="2" height="2"/><rect class="cls-4" x="19.02" y="70.08" width="2" height="2"/><rect class="cls-4" x="19.02" y="72.08" width="2" height="2"/><rect class="cls-4" x="19.02" y="74.08" width="2" height="2"/><rect class="cls-4" x="19.02" y="76.08" width="2" height="2"/><rect class="cls-4" x="19.02" y="78.08" width="2" height="2"/><rect class="cls-4" x="19.02" y="80.08" width="2" height="2"/></g><g id="Right_Arm" data-name="Right Arm"><rect class="cls-1" x="11.02" y="64.08" width="2" height="2"/><rect class="cls-1" x="11.02" y="66.08" width="2" height="2"/><rect class="cls-1" x="11.02" y="68.08" width="2" height="2"/><rect class="cls-4" x="11.02" y="70.08" width="2" height="2"/><rect class="cls-4" x="11.02" y="72.08" width="2" height="2"/><rect class="cls-4" x="11.02" y="74.08" width="2" height="2"/><rect class="cls-4" x="11.02" y="76.08" width="2" height="2"/><rect class="cls-4" x="11.02" y="78.08" width="2" height="2"/><rect class="cls-4" x="11.02" y="80.08" width="2" height="2"/></g><g id="Neck"><rect class="cls-4" x="15.02" y="64.08" width="2" height="2"/><rect class="cls-4" x="15.02" y="62.08" width="2" height="2"/></g><g id="Head-2" data-name="Head"><rect class="cls-4" x="17.02" y="60.08" width="2" height="2"/><rect class="cls-4" x="15.02" y="60.08" width="2" height="2"/><rect class="cls-4" x="13.02" y="60.08" width="2" height="2"/><rect class="cls-4" x="17.02" y="58.08" width="2" height="2"/><rect class="cls-4" x="15.02" y="58.08" width="2" height="2"/><rect class="cls-4" x="13.02" y="58.08" width="2" height="2"/><rect class="cls-4" x="17.02" y="56.08" width="2" height="2"/><rect class="cls-4" x="15.02" y="56.08" width="2" height="2"/><rect class="cls-4" x="13.02" y="56.08" width="2" height="2"/><rect class="cls-4" x="17.02" y="54.08" width="2" height="2"/><rect class="cls-4" x="15.02" y="54.08" width="2" height="2"/><rect class="cls-4" x="13.02" y="54.08" width="2" height="2"/><rect class="cls-4" x="13.02" y="54.08" width="2" height="2"/><rect class="cls-4" x="13.02" y="56.08" width="2" height="2"/></g><rect class="cls-4" x="46.04" y="17" width="2" height="2"/><rect class="cls-1" x="48.02" y="16" width="2" height="2"/><rect class="cls-4" x="44.04" y="18" width="2" height="2"/><rect class="cls-4" x="42.04" y="19" width="2" height="2"/><rect class="cls-4" x="41.02" y="21" width="2" height="2"/><rect class="cls-4" x="39.08" y="25" width="2" height="2"/><rect class="cls-4" x="40.02" y="23" width="2" height="2"/><rect class="cls-1" x="49.05" y="14" width="2" height="2"/><rect class="cls-2" x="50.09" y="32" width="2" height="2"/><rect class="cls-2" x="51.09" y="34" width="2" height="2"/><rect class="cls-2" x="52.09" y="36" width="2" height="2"/><rect class="cls-2" x="53.09" y="38" width="2" height="2"/><rect class="cls-2" x="54.09" y="39.25" width="2" height="2"/><rect class="cls-2" x="54.44" y="41.25" width="2" height="2"/><rect class="cls-2" x="54.81" y="43.25" width="2" height="2"/><rect class="cls-1" x="55.44" y="47.2" width="2" height="2"/><rect class="cls-1" x="57.44" y="46.45" width="2" height="2"/><rect class="cls-2" x="55.44" y="45.2" width="2" height="2"/><rect class="cls-1" x="41.41" y="48" width="2" height="2"/><rect class="cls-1" x="39.41" y="47.25" width="2" height="2"/><rect class="cls-2" x="44.5" y="34" width="2" height="2"/><rect class="cls-2" x="45.06" y="32" width="2" height="2"/><rect class="cls-2" x="44.06" y="36" width="2" height="2"/><rect class="cls-2" x="43.5" y="38" width="2" height="2"/><rect class="cls-2" x="42.94" y="39.25" width="2" height="2"/><rect class="cls-2" x="41.94" y="41.25" width="2" height="2"/><rect class="cls-2" x="40.94" y="43.25" width="2" height="2"/><rect class="cls-2" x="39.94" y="45.25" width="2" height="2"/><rect class="cls-1" x="47.05" y="16" width="2" height="2"/><rect class="cls-1" x="49.05" y="16" width="2" height="2"/><rect class="cls-1" x="49.05" y="14" width="2" height="2"/><rect class="cls-1" x="45.05" y="16" width="2" height="2"/><rect class="cls-1" x="45.05" y="14" width="2" height="2"/><rect class="cls-1" x="47.05" y="14" width="2" height="2"/><rect class="cls-1" x="47.05" y="22" width="2" height="2"/><rect class="cls-1" x="45.05" y="22" width="2" height="2"/><rect class="cls-1" x="47.05" y="20" width="2" height="2"/><rect class="cls-1" x="45.05" y="20" width="2" height="2"/><rect class="cls-1" x="49.05" y="22" width="2" height="2"/><rect class="cls-1" x="49.05" y="20" width="2" height="2"/><rect class="cls-1" x="47.05" y="18" width="2" height="2"/><rect class="cls-1" x="49.05" y="18" width="2" height="2"/><rect class="cls-1" x="45.05" y="18" width="2" height="2"/><rect class="cls-1" x="47.05" y="24" width="2" height="2"/><rect class="cls-1" x="45.05" y="24" width="2" height="2"/><rect class="cls-1" x="49.05" y="24" width="2" height="2"/><rect class="cls-1" x="47.05" y="26" width="2" height="2"/><rect class="cls-1" x="45.05" y="26" width="2" height="2"/><rect class="cls-1" x="49.05" y="26" width="2" height="2"/><rect class="cls-2" x="45.05" y="30" width="2" height="2"/><rect class="cls-2" x="47.05" y="30" width="2" height="2"/><rect class="cls-2" x="49.05" y="30" width="2" height="2"/><rect class="cls-3" x="45.05" y="28" width="2" height="2"/><rect class="cls-3" x="47.05" y="28" width="2" height="2"/><rect class="cls-3" x="49.05" y="28" width="2" height="2"/><rect class="cls-1" x="47.02" y="14" width="2" height="2"/><rect class="cls-4" x="47.05" y="12" width="2" height="2"/><g id="Head-3" data-name="Head"><rect class="cls-4" x="49.05" y="10" width="2" height="2"/><rect class="cls-4" x="47.05" y="10" width="2" height="2"/><rect class="cls-4" x="45.05" y="10" width="2" height="2"/><rect class="cls-4" x="49.05" y="8" width="2" height="2"/><rect class="cls-4" x="47.05" y="8" width="2" height="2"/><rect class="cls-4" x="45.05" y="8" width="2" height="2"/><rect class="cls-4" x="49.05" y="6" width="2" height="2"/><rect class="cls-4" x="47.05" y="6" width="2" height="2"/><rect class="cls-4" x="45.05" y="6" width="2" height="2"/><rect class="cls-4" x="49.05" y="4" width="2" height="2"/><rect class="cls-4" x="47.05" y="4" width="2" height="2"/><rect class="cls-4" x="45.05" y="4" width="2" height="2"/><rect class="cls-4" x="45.05" y="4" width="2" height="2"/><rect class="cls-4" x="45.05" y="6" width="2" height="2"/></g><rect class="cls-1" x="45.13" y="14" width="2" height="2"/><rect class="cls-4" x="47.13" y="18" width="2" height="2"/><rect class="cls-1" x="46.13" y="16" width="2" height="2"/><rect class="cls-4" x="48.13" y="20" width="2" height="2"/><rect class="cls-4" x="49.13" y="22" width="2" height="2"/><rect class="cls-4" x="51.06" y="23" width="2" height="2"/><rect class="cls-4" x="55.06" y="25" width="2" height="2"/><rect class="cls-4" x="53.06" y="24" width="2" height="2"/><rect class="cls-4" x="14.4" y="20.11" width="2" height="2"/><rect class="cls-4" x="14.99" y="18.11" width="2" height="2"/><rect class="cls-4" x="13.99" y="22.11" width="2" height="2"/><rect class="cls-4" x="13.36" y="24.11" width="2" height="2"/><rect class="cls-4" x="12.68" y="26.11" width="2" height="2"/><rect class="cls-4" x="10.55" y="30.11" width="2" height="2"/><rect class="cls-4" x="11.55" y="28.11" width="2" height="2"/><rect class="cls-1" x="13.02" y="16.11" width="2" height="2"/><rect class="cls-1" x="17.02" y="16.11" width="2" height="2"/><rect class="cls-1" x="16.99" y="14.11" width="2" height="2"/><rect class="cls-2" x="13.02" y="30.11" width="2" height="2"/><rect class="cls-2" x="15.02" y="30.11" width="2" height="2"/><rect class="cls-2" x="17.02" y="30.11" width="2" height="2"/><rect class="cls-2" x="17.96" y="32.11" width="2" height="2"/><rect class="cls-2" x="18.96" y="34.11" width="2" height="2"/><rect class="cls-2" x="19.96" y="36.11" width="2" height="2"/><rect class="cls-2" x="20.96" y="38.11" width="2" height="2"/><rect class="cls-2" x="21.96" y="39.36" width="2" height="2"/><rect class="cls-2" x="21.96" y="41.36" width="2" height="2"/><rect class="cls-2" x="21.96" y="43.36" width="2" height="2"/><rect class="cls-1" x="21.97" y="47.31" width="2" height="2"/><rect class="cls-1" x="23.97" y="46.56" width="2" height="2"/><rect class="cls-2" x="21.97" y="45.31" width="2" height="2"/><rect class="cls-1" x="10.93" y="47.36" width="2" height="2"/><rect class="cls-1" x="8.93" y="47.36" width="2" height="2"/><rect class="cls-2" x="13.02" y="34.11" width="2" height="2"/><rect class="cls-2" x="13.02" y="32.11" width="2" height="2"/><rect class="cls-2" x="13.02" y="36.11" width="2" height="2"/><rect class="cls-2" x="13.02" y="38.11" width="2" height="2"/><rect class="cls-2" x="12.46" y="39.36" width="2" height="2"/><rect class="cls-2" x="11.46" y="41.36" width="2" height="2"/><rect class="cls-2" x="10.46" y="43.36" width="2" height="2"/><rect class="cls-2" x="9.46" y="45.36" width="2" height="2"/><rect class="cls-3" x="13.02" y="28.11" width="2" height="2"/><rect class="cls-3" x="15.02" y="28.11" width="2" height="2"/><rect class="cls-3" x="17.02" y="28.11" width="2" height="2"/><rect class="cls-1" x="15.02" y="22.11" width="2" height="2"/><rect class="cls-1" x="13.02" y="22.11" width="2" height="2"/><rect class="cls-1" x="15.02" y="20.11" width="2" height="2"/><rect class="cls-1" x="13.02" y="20.11" width="2" height="2"/><rect class="cls-1" x="17.02" y="22.11" width="2" height="2"/><rect class="cls-1" x="17.02" y="20.11" width="2" height="2"/><rect class="cls-1" x="15.02" y="18.11" width="2" height="2"/><rect class="cls-1" x="15.02" y="16.11" width="2" height="2"/><rect class="cls-1" x="17.02" y="18.11" width="2" height="2"/><rect class="cls-1" x="14.99" y="14.11" width="2" height="2"/><rect class="cls-1" x="13.02" y="18.11" width="2" height="2"/><rect class="cls-1" x="13.02" y="14.11" width="2" height="2"/><rect class="cls-1" x="15.02" y="24.11" width="2" height="2"/><rect class="cls-1" x="13.02" y="24.11" width="2" height="2"/><rect class="cls-1" x="17.02" y="24.11" width="2" height="2"/><rect class="cls-1" x="15.02" y="26.11" width="2" height="2"/><rect class="cls-1" x="13.02" y="26.11" width="2" height="2"/><rect class="cls-1" x="17.02" y="26.11" width="2" height="2"/><rect class="cls-1" x="15.02" y="14.11" width="2" height="2"/><rect class="cls-4" x="15.02" y="12.11" width="2" height="2"/><g id="Head-4" data-name="Head"><rect class="cls-4" x="17.02" y="10.11" width="2" height="2"/><rect class="cls-4" x="15.02" y="10.11" width="2" height="2"/><rect class="cls-4" x="13.02" y="10.11" width="2" height="2"/><rect class="cls-4" x="17.02" y="8.11" width="2" height="2"/><rect class="cls-4" x="15.02" y="8.11" width="2" height="2"/><rect class="cls-4" x="13.02" y="8.11" width="2" height="2"/><rect class="cls-4" x="17.02" y="6.11" width="2" height="2"/><rect class="cls-4" x="15.02" y="6.11" width="2" height="2"/><rect class="cls-4" x="13.02" y="6.11" width="2" height="2"/><rect class="cls-4" x="17.02" y="4.11" width="2" height="2"/><rect class="cls-4" x="15.02" y="4.11" width="2" height="2"/><rect class="cls-4" x="13.02" y="4.11" width="2" height="2"/><rect class="cls-4" x="13.02" y="4.11" width="2" height="2"/><rect class="cls-4" x="13.02" y="6.11" width="2" height="2"/></g><rect class="cls-4" x="15.61" y="20.11" width="2" height="2"/><rect class="cls-4" x="15.02" y="18.11" width="2" height="2"/><rect class="cls-4" x="16.02" y="22.11" width="2" height="2"/><rect class="cls-4" x="16.65" y="24.11" width="2" height="2"/><rect class="cls-4" x="17.33" y="26.11" width="2" height="2"/><rect class="cls-4" x="19.46" y="30.11" width="2" height="2"/><rect class="cls-4" x="18.46" y="28.11" width="2" height="2"/><rect class="cls-4" x="111.57" y="20" width="2" height="2"/><rect class="cls-4" x="110.98" y="18" width="2" height="2"/><rect class="cls-4" x="111.98" y="22" width="2" height="2"/><rect class="cls-4" x="112.6" y="24" width="2" height="2"/><rect class="cls-4" x="113.29" y="26" width="2" height="2"/><rect class="cls-4" x="115.42" y="30" width="2" height="2"/><rect class="cls-4" x="114.42" y="28" width="2" height="2"/><rect class="cls-1" x="108.98" y="16" width="2" height="2"/><rect class="cls-1" x="112.98" y="16" width="2" height="2"/><rect class="cls-1" x="112.95" y="14" width="2" height="2"/><rect class="cls-2" x="108.98" y="30" width="2" height="2"/><rect class="cls-2" x="110.98" y="30" width="2" height="2"/><rect class="cls-2" x="112.98" y="30" width="2" height="2"/><rect class="cls-2" x="113.92" y="32" width="2" height="2"/><rect class="cls-2" x="114.92" y="34" width="2" height="2"/><rect class="cls-2" x="115.92" y="36" width="2" height="2"/><rect class="cls-2" x="116.92" y="38" width="2" height="2"/><rect class="cls-2" x="117.92" y="39.25" width="2" height="2"/><rect class="cls-2" x="117.92" y="41.25" width="2" height="2"/><rect class="cls-2" x="117.92" y="43.25" width="2" height="2"/><rect class="cls-1" x="117.93" y="47.2" width="2" height="2"/><rect class="cls-1" x="119.93" y="46.45" width="2" height="2"/><rect class="cls-2" x="117.93" y="45.2" width="2" height="2"/><rect class="cls-1" x="106.89" y="47.25" width="2" height="2"/><rect class="cls-1" x="104.89" y="47.25" width="2" height="2"/><rect class="cls-2" x="108.98" y="34" width="2" height="2"/><rect class="cls-2" x="108.98" y="32" width="2" height="2"/><rect class="cls-2" x="108.98" y="36" width="2" height="2"/><rect class="cls-2" x="108.98" y="38" width="2" height="2"/><rect class="cls-2" x="108.42" y="39.25" width="2" height="2"/><rect class="cls-2" x="107.42" y="41.25" width="2" height="2"/><rect class="cls-2" x="106.42" y="43.25" width="2" height="2"/><rect class="cls-2" x="105.42" y="45.25" width="2" height="2"/><rect class="cls-3" x="108.98" y="28" width="2" height="2"/><rect class="cls-3" x="110.98" y="28" width="2" height="2"/><rect class="cls-5" x="112.98" y="28" width="2" height="2"/><rect class="cls-1" x="110.98" y="22" width="2" height="2"/><rect class="cls-1" x="108.98" y="22" width="2" height="2"/><rect class="cls-1" x="110.98" y="20" width="2" height="2"/><rect class="cls-1" x="108.98" y="20" width="2" height="2"/><rect class="cls-1" x="112.98" y="22" width="2" height="2"/><rect class="cls-1" x="112.98" y="20" width="2" height="2"/><rect class="cls-1" x="110.98" y="18" width="2" height="2"/><rect class="cls-1" x="110.98" y="16" width="2" height="2"/><rect class="cls-1" x="112.98" y="18" width="2" height="2"/><rect class="cls-1" x="110.95" y="14" width="2" height="2"/><rect class="cls-1" x="108.98" y="18" width="2" height="2"/><rect class="cls-1" x="108.98" y="14" width="2" height="2"/><rect class="cls-1" x="110.98" y="24" width="2" height="2"/><rect class="cls-1" x="108.98" y="24" width="2" height="2"/><rect class="cls-1" x="112.98" y="24" width="2" height="2"/><rect class="cls-1" x="110.98" y="26" width="2" height="2"/><rect class="cls-1" x="108.98" y="26" width="2" height="2"/><rect class="cls-1" x="112.98" y="26" width="2" height="2"/><rect class="cls-1" x="110.98" y="14" width="2" height="2"/><rect class="cls-4" x="110.98" y="12" width="2" height="2"/><g id="Head-5" data-name="Head"><rect class="cls-4" x="112.98" y="10" width="2" height="2"/><rect class="cls-4" x="110.98" y="10" width="2" height="2"/><rect class="cls-4" x="108.98" y="10" width="2" height="2"/><rect class="cls-4" x="112.98" y="8" width="2" height="2"/><rect class="cls-4" x="110.98" y="8" width="2" height="2"/><rect class="cls-4" x="108.98" y="8" width="2" height="2"/><rect class="cls-4" x="112.98" y="6" width="2" height="2"/><rect class="cls-4" x="110.98" y="6" width="2" height="2"/><rect class="cls-4" x="108.98" y="6" width="2" height="2"/><rect class="cls-4" x="112.98" y="4" width="2" height="2"/><rect class="cls-4" x="110.98" y="4" width="2" height="2"/><rect class="cls-4" x="108.98" y="4" width="2" height="2"/><rect class="cls-4" x="108.98" y="4" width="2" height="2"/><rect class="cls-4" x="108.98" y="6" width="2" height="2"/></g><rect class="cls-4" x="110.05" y="20" width="2" height="2"/><rect class="cls-4" x="110.95" y="18" width="2" height="2"/><rect class="cls-4" x="109.46" y="22" width="2" height="2"/><rect class="cls-4" x="108.5" y="24" width="2" height="2"/><rect class="cls-4" x="107.82" y="26" width="2" height="2"/><rect class="cls-4" x="107.16" y="30" width="2" height="2"/><rect class="cls-4" x="107.5" y="28" width="2" height="2"/><g id="Left_Shoe-3" data-name="Left Shoe"><rect class="cls-1" x="79.01" y="48.05" width="2" height="2"/><rect class="cls-1" x="81.01" y="48.05" width="2" height="2"/></g><rect class="cls-2" x="77.01" y="30.05" width="2" height="2"/><rect class="cls-2" x="79.01" y="30.05" width="2" height="2"/><rect class="cls-2" x="81.01" y="30.05" width="2" height="2"/><rect class="cls-2" x="79.01" y="34.05" width="2" height="2"/><rect class="cls-2" x="79.01" y="32.05" width="2" height="2"/><rect class="cls-2" x="79.01" y="36.05" width="2" height="2"/><rect class="cls-2" x="79.01" y="38.05" width="2" height="2"/><rect class="cls-2" x="79.01" y="40.05" width="2" height="2"/><rect class="cls-2" x="79.01" y="42.05" width="2" height="2"/><rect class="cls-2" x="79.01" y="44.05" width="2" height="2"/><rect class="cls-2" x="79.01" y="46.05" width="2" height="2"/><rect class="cls-3" x="77.01" y="28.05" width="2" height="2"/><rect class="cls-3" x="79.01" y="28.05" width="2" height="2"/><rect class="cls-5" x="81.01" y="28.05" width="2" height="2"/><rect class="cls-1" x="79.01" y="22.05" width="2" height="2"/><rect class="cls-1" x="77.01" y="22.05" width="2" height="2"/><rect class="cls-1" x="79.01" y="20.05" width="2" height="2"/><rect class="cls-1" x="77.01" y="20.05" width="2" height="2"/><rect class="cls-1" x="81.01" y="22.05" width="2" height="2"/><rect class="cls-1" x="81.01" y="20.05" width="2" height="2"/><rect class="cls-1" x="79.01" y="18.05" width="2" height="2"/><rect class="cls-1" x="79.01" y="16.05" width="2" height="2"/><rect class="cls-1" x="81.01" y="18.05" width="2" height="2"/><rect class="cls-1" x="81.01" y="16.05" width="2" height="2"/><rect class="cls-1" x="81.01" y="14.05" width="2" height="2"/><rect class="cls-1" x="77.01" y="18.05" width="2" height="2"/><rect class="cls-1" x="77.01" y="16.05" width="2" height="2"/><rect class="cls-1" x="77.01" y="14.05" width="2" height="2"/><rect class="cls-1" x="79.01" y="24.05" width="2" height="2"/><rect class="cls-1" x="77.01" y="24.05" width="2" height="2"/><rect class="cls-1" x="81.01" y="24.05" width="2" height="2"/><rect class="cls-1" x="79.01" y="26.05" width="2" height="2"/><rect class="cls-1" x="77.01" y="26.05" width="2" height="2"/><rect class="cls-1" x="81.01" y="26.05" width="2" height="2"/><rect class="cls-1" x="79.01" y="14.05" width="2" height="2"/><rect class="cls-4" x="79.01" y="12.05" width="2" height="2"/><g id="Head-6" data-name="Head"><rect class="cls-4" x="81.01" y="10.05" width="2" height="2"/><rect class="cls-4" x="79.01" y="10.05" width="2" height="2"/><rect class="cls-4" x="77.01" y="10.05" width="2" height="2"/><rect class="cls-4" x="81.01" y="8.05" width="2" height="2"/><rect class="cls-4" x="79.01" y="8.05" width="2" height="2"/><rect class="cls-4" x="77.01" y="8.05" width="2" height="2"/><rect class="cls-4" x="81.01" y="6.05" width="2" height="2"/><rect class="cls-4" x="79.01" y="6.05" width="2" height="2"/><rect class="cls-4" x="77.01" y="6.05" width="2" height="2"/><rect class="cls-4" x="81.01" y="4.05" width="2" height="2"/><rect class="cls-4" x="79.01" y="4.05" width="2" height="2"/><rect class="cls-4" x="77.01" y="4.05" width="2" height="2"/><rect class="cls-4" x="77.01" y="4.05" width="2" height="2"/><rect class="cls-4" x="77.01" y="6.05" width="2" height="2"/></g><rect class="cls-1" x="79.01" y="14.05" width="2" height="2"/><rect class="cls-1" x="79.01" y="16.05" width="2" height="2"/><rect class="cls-4" x="79.01" y="18.05" width="2" height="2"/><rect class="cls-4" x="79.01" y="20.05" width="2" height="2"/><rect class="cls-4" x="79.01" y="22.05" width="2" height="2"/><rect class="cls-4" x="79.01" y="24.05" width="2" height="2"/><rect class="cls-4" x="79.01" y="26.05" width="2" height="2"/><rect class="cls-4" x="79.01" y="28.05" width="2" height="2"/><rect class="cls-4" x="79.01" y="30.05" width="2" height="2"/><rect class="cls-4" x="143.01" y="12.05" width="2" height="2"/><g id="Head-7" data-name="Head"><rect class="cls-4" x="145.01" y="10.05" width="2" height="2"/><rect class="cls-4" x="143.01" y="10.05" width="2" height="2"/><rect class="cls-4" x="141.01" y="10.05" width="2" height="2"/><rect class="cls-4" x="145.01" y="8.05" width="2" height="2"/><rect class="cls-4" x="143.01" y="8.05" width="2" height="2"/><rect class="cls-4" x="141.01" y="8.05" width="2" height="2"/><rect class="cls-4" x="145.01" y="6.05" width="2" height="2"/><rect class="cls-4" x="143.01" y="6.05" width="2" height="2"/><rect class="cls-4" x="141.01" y="6.05" width="2" height="2"/><rect class="cls-4" x="145.01" y="4.05" width="2" height="2"/><rect class="cls-4" x="143.01" y="4.05" width="2" height="2"/><rect class="cls-4" x="141.01" y="4.05" width="2" height="2"/><rect class="cls-4" x="141.01" y="4.05" width="2" height="2"/><rect class="cls-4" x="141.01" y="6.05" width="2" height="2"/></g><rect class="cls-1" x="141.09" y="14.05" width="2" height="2"/><rect class="cls-4" x="143.09" y="18.05" width="2" height="2"/><rect class="cls-1" x="142.09" y="16.05" width="2" height="2"/><rect class="cls-4" x="144.09" y="20.05" width="2" height="2"/><rect class="cls-4" x="145.09" y="22.05" width="2" height="2"/><rect class="cls-4" x="147.03" y="23.05" width="2" height="2"/><rect class="cls-4" x="151.03" y="25.05" width="2" height="2"/><rect class="cls-4" x="149.03" y="24.05" width="2" height="2"/><rect class="cls-2" x="146.06" y="32.05" width="2" height="2"/><rect class="cls-2" x="147.06" y="34.05" width="2" height="2"/><rect class="cls-2" x="148.06" y="36.05" width="2" height="2"/><rect class="cls-2" x="149.06" y="38.05" width="2" height="2"/><rect class="cls-2" x="150.06" y="39.3" width="2" height="2"/><rect class="cls-2" x="150.4" y="41.3" width="2" height="2"/><rect class="cls-2" x="150.78" y="43.3" width="2" height="2"/><rect class="cls-1" x="151.4" y="47.25" width="2" height="2"/><rect class="cls-1" x="153.4" y="46.5" width="2" height="2"/><rect class="cls-2" x="151.4" y="45.25" width="2" height="2"/><rect class="cls-1" x="137.37" y="48.05" width="2" height="2"/><rect class="cls-1" x="135.37" y="47.3" width="2" height="2"/><rect class="cls-2" x="140.47" y="34.05" width="2" height="2"/><rect class="cls-2" x="141.03" y="32.05" width="2" height="2"/><rect class="cls-2" x="140.03" y="36.05" width="2" height="2"/><rect class="cls-2" x="139.47" y="38.05" width="2" height="2"/><rect class="cls-2" x="138.9" y="39.3" width="2" height="2"/><rect class="cls-2" x="137.9" y="41.3" width="2" height="2"/><rect class="cls-2" x="136.9" y="43.3" width="2" height="2"/><rect class="cls-2" x="135.9" y="45.3" width="2" height="2"/><rect class="cls-1" x="143.01" y="16.05" width="2" height="2"/><rect class="cls-1" x="145.01" y="16.05" width="2" height="2"/><rect class="cls-1" x="145.01" y="14.05" width="2" height="2"/><rect class="cls-1" x="141.01" y="16.05" width="2" height="2"/><rect class="cls-1" x="141.01" y="14.05" width="2" height="2"/><rect class="cls-1" x="143.01" y="14.05" width="2" height="2"/><rect class="cls-1" x="143.01" y="22.05" width="2" height="2"/><rect class="cls-1" x="141.01" y="22.05" width="2" height="2"/><rect class="cls-1" x="143.01" y="20.05" width="2" height="2"/><rect class="cls-1" x="141.01" y="20.05" width="2" height="2"/><rect class="cls-1" x="145.01" y="22.05" width="2" height="2"/><rect class="cls-1" x="145.01" y="20.05" width="2" height="2"/><rect class="cls-1" x="143.01" y="18.05" width="2" height="2"/><rect class="cls-1" x="145.01" y="18.05" width="2" height="2"/><rect class="cls-1" x="141.01" y="18.05" width="2" height="2"/><rect class="cls-1" x="143.01" y="24.05" width="2" height="2"/><rect class="cls-1" x="141.01" y="24.05" width="2" height="2"/><rect class="cls-1" x="145.01" y="24.05" width="2" height="2"/><rect class="cls-1" x="143.01" y="26.05" width="2" height="2"/><rect class="cls-1" x="141.01" y="26.05" width="2" height="2"/><rect class="cls-1" x="145.01" y="26.05" width="2" height="2"/><rect class="cls-2" x="141.01" y="30.05" width="2" height="2"/><rect class="cls-2" x="143.01" y="30.05" width="2" height="2"/><rect class="cls-2" x="145.01" y="30.05" width="2" height="2"/><rect class="cls-3" x="141.01" y="28.05" width="2" height="2"/><rect class="cls-3" x="143.01" y="28.05" width="2" height="2"/><rect class="cls-3" x="145.01" y="28.05" width="2" height="2"/><rect class="cls-1" x="142.98" y="14.05" width="2" height="2"/><rect class="cls-4" x="142.01" y="17.05" width="2" height="2"/><rect class="cls-1" x="143.98" y="16.05" width="2" height="2"/><rect class="cls-4" x="140.01" y="18.05" width="2" height="2"/><rect class="cls-4" x="138.01" y="19.05" width="2" height="2"/><rect class="cls-4" x="136.98" y="21.05" width="2" height="2"/><rect class="cls-4" x="135.05" y="25.05" width="2" height="2"/><rect class="cls-4" x="135.98" y="23.05" width="2" height="2"/><rect class="cls-1" x="145.01" y="14.05" width="2" height="2"/></svg>