<svg id="Layer_1" data-name="Layer 1" xmlns="http://www.w3.org/2000/svg" viewBox="0 0 19.93 45.02"><defs><style>.cls-1{fill:#3abddf;}.cls-2{fill:#0099d5;}.cls-3{fill:#9e6f13;}.cls-4{fill:#f9d2b0;}.cls-5{fill:#205e6d;}</style></defs><rect class="cls-1" x="6.07" y="20.18" width="1.56" height="1.56"/><rect class="cls-2" x="7.63" y="20.18" width="1.56" height="1.56"/><rect class="cls-1" x="9.19" y="20.18" width="1.56" height="1.56"/><rect class="cls-1" x="6.07" y="23.29" width="1.56" height="1.56"/><rect class="cls-1" x="9.19" y="23.29" width="1.56" height="1.56"/><rect class="cls-1" x="6.07" y="21.73" width="1.56" height="1.56"/><rect class="cls-1" x="9.19" y="21.73" width="1.56" height="1.56"/><rect class="cls-1" x="6.07" y="24.84" width="1.56" height="1.56"/><rect class="cls-1" x="9.19" y="24.84" width="1.56" height="1.56"/><rect class="cls-1" x="6.07" y="18.62" width="1.56" height="1.56"/><rect class="cls-2" x="7.63" y="18.62" width="1.56" height="1.56"/><rect class="cls-1" x="9.19" y="18.62" width="1.56" height="1.56"/><rect class="cls-3" x="10.74" y="18.62" width="1.56" height="1.56"/><rect class="cls-1" x="7.63" y="24.84" width="1.56" height="1.56"/><rect class="cls-1" x="6.07" y="24.84" width="1.56" height="1.56"/><rect class="cls-1" x="7.63" y="23.29" width="1.56" height="1.56"/><rect class="cls-1" x="6.07" y="23.29" width="1.56" height="1.56"/><rect class="cls-1" x="9.19" y="24.84" width="1.56" height="1.56"/><rect class="cls-1" x="9.19" y="23.29" width="1.56" height="1.56"/><rect class="cls-1" x="7.63" y="21.73" width="1.56" height="1.56"/><rect class="cls-1" x="7.63" y="20.18" width="1.56" height="1.56"/><rect class="cls-1" x="9.19" y="21.73" width="1.56" height="1.56"/><rect class="cls-1" x="9.19" y="20.18" width="1.56" height="1.56"/><rect class="cls-1" x="9.19" y="18.62" width="1.56" height="1.56"/><rect class="cls-1" x="6.07" y="21.73" width="1.56" height="1.56"/><rect class="cls-1" x="6.07" y="20.18" width="1.56" height="1.56"/><rect class="cls-1" x="6.07" y="18.62" width="1.56" height="1.56"/><rect class="cls-4" x="10.74" y="18.62" width="1.56" height="1.56"/><rect class="cls-4" x="10.74" y="20.18" width="1.56" height="1.56"/><rect class="cls-4" x="10.74" y="21.73" width="1.56" height="1.56"/><rect class="cls-4" x="10.74" y="23.29" width="1.56" height="1.56"/><rect class="cls-4" x="10.74" y="24.84" width="1.56" height="1.56"/><rect class="cls-4" x="4.52" y="18.62" width="1.56" height="1.56"/><rect class="cls-4" x="4.52" y="20.18" width="1.56" height="1.56"/><rect class="cls-4" x="4.52" y="21.73" width="1.56" height="1.56"/><rect class="cls-4" x="4.52" y="23.29" width="1.56" height="1.56"/><rect class="cls-4" x="4.52" y="24.84" width="1.56" height="1.56"/><rect class="cls-5" x="6.07" y="26.4" width="1.56" height="1.56"/><rect class="cls-5" x="9.19" y="26.4" width="1.56" height="1.56"/><rect class="cls-5" x="7.63" y="26.4" width="1.56" height="1.56"/><rect class="cls-5" x="6.07" y="26.4" width="1.56" height="1.56"/><rect class="cls-5" x="9.19" y="26.4" width="1.56" height="1.56"/><rect class="cls-5" x="10.74" y="26.4" width="1.56" height="1.56"/><rect class="cls-5" x="12.3" y="26.4" width="1.56" height="1.56"/><rect class="cls-5" x="12.3" y="26.4" width="1.56" height="1.56"/><rect class="cls-5" x="12.3" y="27.96" width="1.56" height="1.56"/><rect class="cls-5" x="12.3" y="29.51" width="1.56" height="1.56"/><rect x="12.3" y="31.07" width="1.56" height="1.56"/><rect x="13.85" y="31.07" width="1.56" height="1.56"/><rect class="cls-5" x="9.19" y="27.96" width="1.56" height="1.56"/><rect class="cls-5" x="9.19" y="29.51" width="1.56" height="1.56"/><rect x="9.19" y="31.07" width="1.56" height="1.56"/><rect x="10.74" y="31.07" width="1.56" height="1.56"/><rect class="cls-4" x="4.52" y="26.4" width="1.56" height="1.56"/><rect class="cls-1" x="7.63" y="18.62" width="1.56" height="1.56"/><rect class="cls-4" x="7.63" y="17.06" width="1.56" height="1.56"/><rect class="cls-4" x="9.19" y="15.51" width="1.56" height="1.56"/><rect class="cls-4" x="7.63" y="15.51" width="1.56" height="1.56"/><rect class="cls-4" x="6.07" y="15.51" width="1.56" height="1.56"/><rect class="cls-4" x="9.19" y="13.95" width="1.56" height="1.56"/><rect class="cls-4" x="7.63" y="13.95" width="1.56" height="1.56"/><rect class="cls-4" x="6.07" y="13.95" width="1.56" height="1.56"/><rect class="cls-4" x="9.19" y="12.4" width="1.56" height="1.56"/><rect class="cls-4" x="7.63" y="12.4" width="1.56" height="1.56"/><rect class="cls-4" x="6.07" y="12.4" width="1.56" height="1.56"/><rect class="cls-4" x="6.07" y="12.4" width="1.56" height="1.56"/></svg>