<svg id="Layer_1" data-name="Layer 1" xmlns="http://www.w3.org/2000/svg" viewBox="0 0 19.93 45.02"><defs><style>.cls-1{fill:#314d9c;}.cls-2{fill:#9e6f13;}.cls-3{fill:#ada130;}.cls-4{fill:#1d1d1b;}.cls-5{fill:#f9d2b0;}</style></defs><rect class="cls-1" x="3.96" y="28.53" width="2" height="2"/><rect class="cls-1" x="5.96" y="28.53" width="2" height="2"/><rect class="cls-1" x="7.96" y="28.53" width="2" height="2"/><rect class="cls-1" x="9.96" y="28.5" width="2" height="2"/><rect class="cls-1" x="7.96" y="28.5" width="2" height="2"/><rect class="cls-1" x="11.96" y="28.5" width="2" height="2"/><rect class="cls-2" x="3.96" y="26.53" width="2" height="2"/><rect class="cls-3" x="5.96" y="26.53" width="2" height="2"/><rect class="cls-2" x="7.96" y="26.53" width="2" height="2"/><rect class="cls-4" x="5.96" y="20.53" width="2" height="2"/><rect class="cls-4" x="3.96" y="20.53" width="2" height="2"/><rect class="cls-4" x="5.96" y="18.53" width="2" height="2"/><rect class="cls-4" x="3.96" y="18.53" width="2" height="2"/><rect class="cls-4" x="7.96" y="20.53" width="2" height="2"/><rect class="cls-4" x="7.96" y="18.53" width="2" height="2"/><rect class="cls-4" x="5.96" y="16.53" width="2" height="2"/><rect class="cls-4" x="5.96" y="14.53" width="2" height="2"/><rect class="cls-4" x="7.96" y="16.53" width="2" height="2"/><rect class="cls-4" x="7.96" y="14.53" width="2" height="2"/><rect class="cls-4" x="7.96" y="12.53" width="2" height="2"/><rect class="cls-4" x="3.96" y="16.53" width="2" height="2"/><rect class="cls-4" x="3.96" y="14.53" width="2" height="2"/><rect class="cls-4" x="3.96" y="12.53" width="2" height="2"/><rect class="cls-4" x="5.96" y="22.53" width="2" height="2"/><rect class="cls-4" x="3.96" y="22.53" width="2" height="2"/><rect class="cls-4" x="7.96" y="22.53" width="2" height="2"/><rect class="cls-4" x="5.96" y="24.53" width="2" height="2"/><rect class="cls-4" x="3.96" y="24.53" width="2" height="2"/><rect class="cls-4" x="7.96" y="24.53" width="2" height="2"/><rect class="cls-4" x="9.96" y="12.53" width="2" height="2"/><rect class="cls-4" x="9.96" y="14.53" width="2" height="2"/><rect class="cls-4" x="9.96" y="16.53" width="2" height="2"/><rect class="cls-5" x="9.96" y="18.53" width="2" height="2"/><rect class="cls-5" x="9.96" y="20.53" width="2" height="2"/><rect class="cls-5" x="9.96" y="22.53" width="2" height="2"/><rect class="cls-5" x="9.96" y="24.53" width="2" height="2"/><rect class="cls-5" x="9.96" y="26.53" width="2" height="2"/><rect class="cls-1" x="9.96" y="28.53" width="2" height="2"/><rect class="cls-1" x="3.96" y="28.53" width="2" height="2"/><rect class="cls-1" x="5.96" y="28.5" width="2" height="2"/><rect class="cls-1" x="3.96" y="28.5" width="2" height="2"/><rect class="cls-1" x="7.96" y="28.5" width="2" height="2"/><rect class="cls-1" x="13.96" y="28.5" width="2" height="2"/><rect class="cls-1" x="13.96" y="30.51" width="2" height="2"/><rect class="cls-1" x="13.96" y="32.51" width="2" height="2"/><rect class="cls-1" x="13.96" y="34.51" width="2" height="2"/><rect class="cls-1" x="13.96" y="36.51" width="2" height="2"/><rect class="cls-1" x="11.96" y="28.53" width="2" height="2"/><rect class="cls-1" x="9.96" y="28.5" width="2" height="2"/><rect class="cls-1" x="9.96" y="30.51" width="2" height="2"/><rect class="cls-1" x="9.96" y="32.51" width="2" height="2"/><rect class="cls-1" x="9.96" y="34.51" width="2" height="2"/><rect class="cls-1" x="9.96" y="36.51" width="2" height="2"/><g id="Left_Shoe" data-name="Left Shoe"><rect class="cls-4" x="9.96" y="40.49" width="2" height="2"/><rect class="cls-4" x="11.96" y="40.49" width="2" height="2"/></g><g id="Left_Shoe-2" data-name="Left Shoe"><rect class="cls-4" x="13.96" y="40.49" width="2" height="2"/><rect class="cls-4" x="15.96" y="40.49" width="2" height="2"/></g><rect class="cls-1" x="13.96" y="38.51" width="2" height="2"/><rect class="cls-1" x="9.96" y="38.51" width="2" height="2"/><rect class="cls-1" x="5.96" y="28.53" width="2" height="2"/><g id="Right_Arm" data-name="Right Arm"><rect class="cls-4" x="1.96" y="12.53" width="2" height="2"/><rect class="cls-4" x="1.96" y="14.53" width="2" height="2"/><rect class="cls-4" x="1.96" y="16.53" width="2" height="2"/><rect class="cls-5" x="1.96" y="18.53" width="2" height="2"/><rect class="cls-5" x="1.96" y="20.53" width="2" height="2"/><rect class="cls-5" x="1.96" y="22.53" width="2" height="2"/><rect class="cls-5" x="1.96" y="24.53" width="2" height="2"/><rect class="cls-5" x="1.96" y="26.53" width="2" height="2"/><rect class="cls-5" x="1.96" y="28.53" width="2" height="2"/></g><g id="Neck"><rect class="cls-5" x="5.96" y="12.53" width="2" height="2"/><rect class="cls-5" x="5.96" y="10.53" width="2" height="2"/></g><g id="Head"><rect class="cls-5" x="7.96" y="8.53" width="2" height="2"/><rect class="cls-5" x="5.96" y="8.53" width="2" height="2"/><rect class="cls-5" x="3.96" y="8.53" width="2" height="2"/><rect class="cls-5" x="7.96" y="6.53" width="2" height="2"/><rect class="cls-5" x="5.96" y="6.53" width="2" height="2"/><rect class="cls-5" x="3.96" y="6.53" width="2" height="2"/><rect class="cls-5" x="7.96" y="4.53" width="2" height="2"/><rect class="cls-5" x="5.96" y="4.53" width="2" height="2"/><rect class="cls-5" x="3.96" y="4.53" width="2" height="2"/><rect class="cls-5" x="7.96" y="2.53" width="2" height="2"/><rect class="cls-5" x="5.96" y="2.53" width="2" height="2"/><rect class="cls-5" x="3.96" y="2.53" width="2" height="2"/><rect class="cls-5" x="3.96" y="2.53" width="2" height="2"/><rect class="cls-5" x="3.96" y="4.53" width="2" height="2"/></g></svg>