<svg id="Layer_1" data-name="Layer 1" xmlns="http://www.w3.org/2000/svg" viewBox="0 0 19.93 45.02"><defs><style>.cls-1{fill:#0099d5;}.cls-2{fill:#a62830;}.cls-3{fill:#e84154;}.cls-4{fill:#f9d2b0;}.cls-5{fill:#542951;}</style></defs><rect class="cls-1" x="5.72" y="29.54" width="2" height="2"/><rect class="cls-1" x="7.72" y="29.54" width="2" height="2"/><rect class="cls-1" x="9.72" y="29.54" width="2" height="2"/><rect class="cls-1" x="11.72" y="29.51" width="2" height="2"/><rect class="cls-1" x="9.72" y="29.51" width="2" height="2"/><rect class="cls-1" x="5.72" y="27.54" width="2" height="2"/><rect class="cls-1" x="7.72" y="27.54" width="2" height="2"/><rect class="cls-1" x="9.72" y="27.51" width="2" height="2"/><rect class="cls-2" x="7.72" y="21.54" width="2" height="2"/><rect class="cls-2" x="5.72" y="21.54" width="2" height="2"/><rect class="cls-2" x="7.72" y="19.54" width="2" height="2"/><rect class="cls-2" x="5.72" y="19.54" width="2" height="2"/><rect class="cls-2" x="9.72" y="21.54" width="2" height="2"/><rect class="cls-2" x="9.72" y="19.54" width="2" height="2"/><rect class="cls-3" x="7.72" y="17.54" width="2" height="2"/><rect class="cls-3" x="7.72" y="15.54" width="2" height="2"/><rect class="cls-3" x="9.72" y="17.54" width="2" height="2"/><rect class="cls-3" x="9.72" y="15.54" width="2" height="2"/><rect class="cls-3" x="9.72" y="13.54" width="2" height="2"/><rect class="cls-3" x="5.72" y="17.54" width="2" height="2"/><rect class="cls-3" x="5.72" y="15.54" width="2" height="2"/><rect class="cls-3" x="5.72" y="13.54" width="2" height="2"/><rect class="cls-3" x="7.72" y="23.54" width="2" height="2"/><rect class="cls-3" x="5.72" y="23.54" width="2" height="2"/><rect class="cls-3" x="9.72" y="23.54" width="2" height="2"/><rect class="cls-3" x="7.72" y="25.54" width="2" height="2"/><rect class="cls-3" x="5.72" y="25.54" width="2" height="2"/><rect class="cls-3" x="9.72" y="25.54" width="2" height="2"/><rect class="cls-4" x="11.72" y="13.54" width="2" height="2"/><rect class="cls-4" x="11.72" y="15.54" width="2" height="2"/><rect class="cls-4" x="11.72" y="17.54" width="2" height="2"/><rect class="cls-4" x="11.72" y="19.54" width="2" height="2"/><rect class="cls-4" x="11.72" y="21.54" width="2" height="2"/><rect class="cls-4" x="11.72" y="23.54" width="2" height="2"/><rect class="cls-4" x="11.72" y="25.54" width="2" height="2"/><rect class="cls-4" x="11.72" y="27.54" width="2" height="2"/><rect class="cls-1" x="11.72" y="29.54" width="2" height="2"/><rect class="cls-1" x="5.72" y="29.54" width="2" height="2"/><rect class="cls-1" x="7.72" y="29.51" width="2" height="2"/><rect class="cls-1" x="5.72" y="30.5" width="2" height="2"/><rect class="cls-1" x="3.72" y="27.54" width="2" height="2"/><rect class="cls-1" x="3.72" y="29.54" width="2" height="2"/><rect class="cls-1" x="9.72" y="30.5" width="2" height="2"/><rect class="cls-1" x="15.72" y="31.53" width="2" height="2"/><rect class="cls-1" x="15.72" y="33.53" width="2" height="2"/><rect class="cls-1" x="15.72" y="35.53" width="2" height="2"/><rect class="cls-1" x="15.72" y="37.53" width="2" height="2"/><rect class="cls-1" x="11.72" y="29.51" width="2" height="2"/><rect class="cls-1" x="13.72" y="29.54" width="2" height="2"/><rect class="cls-1" x="15.72" y="29.51" width="2" height="2"/><rect class="cls-1" x="13.72" y="29.51" width="2" height="2"/><rect class="cls-1" x="15.72" y="29.54" width="2" height="2"/><rect class="cls-1" x="15.72" y="29.51" width="2" height="2"/><rect class="cls-1" x="11.72" y="31.53" width="2" height="2"/><rect class="cls-1" x="11.72" y="33.53" width="2" height="2"/><rect class="cls-1" x="11.72" y="35.53" width="2" height="2"/><rect class="cls-1" x="11.72" y="37.53" width="2" height="2"/><g id="Left_Shoe" data-name="Left Shoe"><rect class="cls-5" x="11.72" y="41.51" width="2" height="2"/><rect class="cls-5" x="13.72" y="41.51" width="2" height="2"/></g><g id="Left_Shoe-2" data-name="Left Shoe"><rect class="cls-5" x="15.72" y="41.51" width="2" height="2"/><rect class="cls-5" x="17.72" y="41.51" width="2" height="2"/></g><rect class="cls-1" x="15.72" y="39.52" width="2" height="2"/><rect class="cls-1" x="11.72" y="39.52" width="2" height="2"/><rect class="cls-1" x="7.72" y="30.5" width="2" height="2"/><g id="Right_Arm" data-name="Right Arm"><rect class="cls-4" x="3.72" y="13.54" width="2" height="2"/><rect class="cls-4" x="3.72" y="15.54" width="2" height="2"/><rect class="cls-4" x="3.72" y="17.54" width="2" height="2"/><rect class="cls-4" x="3.72" y="19.54" width="2" height="2"/><rect class="cls-4" x="3.72" y="21.54" width="2" height="2"/><rect class="cls-4" x="3.72" y="23.54" width="2" height="2"/><rect class="cls-4" x="3.72" y="25.54" width="2" height="2"/><rect class="cls-4" x="3.72" y="27.54" width="2" height="2"/><rect class="cls-4" x="3.72" y="29.54" width="2" height="2"/></g><g id="Neck"><rect class="cls-4" x="7.72" y="13.54" width="2" height="2"/><rect class="cls-4" x="7.72" y="11.54" width="2" height="2"/></g><g id="Head"><rect class="cls-4" x="9.72" y="9.54" width="2" height="2"/><rect class="cls-4" x="7.72" y="9.54" width="2" height="2"/><rect class="cls-4" x="5.72" y="9.54" width="2" height="2"/><rect class="cls-4" x="9.72" y="7.54" width="2" height="2"/><rect class="cls-4" x="7.72" y="7.54" width="2" height="2"/><rect class="cls-4" x="5.72" y="7.54" width="2" height="2"/><rect class="cls-4" x="9.72" y="5.54" width="2" height="2"/><rect class="cls-4" x="7.72" y="5.54" width="2" height="2"/><rect class="cls-4" x="5.72" y="5.54" width="2" height="2"/><rect class="cls-4" x="9.72" y="3.54" width="2" height="2"/><rect class="cls-4" x="7.72" y="3.54" width="2" height="2"/><rect class="cls-4" x="5.72" y="3.54" width="2" height="2"/><rect class="cls-4" x="5.72" y="3.54" width="2" height="2"/><rect class="cls-4" x="5.72" y="5.54" width="2" height="2"/></g><g id="Neck-2" data-name="Neck"><rect class="cls-4" x="7.72" y="13.55" width="2" height="2"/><rect class="cls-4" x="7.72" y="11.54" width="2" height="2"/></g><g id="Head-2" data-name="Head"><rect class="cls-4" x="9.72" y="9.54" width="2" height="2"/><rect class="cls-4" x="7.72" y="9.54" width="2" height="2"/><rect class="cls-4" x="5.72" y="9.54" width="2" height="2"/><rect class="cls-4" x="9.72" y="7.54" width="2" height="2"/><rect class="cls-4" x="7.72" y="7.54" width="2" height="2"/><rect class="cls-4" x="5.72" y="7.54" width="2" height="2"/><rect class="cls-4" x="9.72" y="5.53" width="2" height="2"/><rect class="cls-4" x="7.72" y="5.53" width="2" height="2"/><rect class="cls-4" x="5.72" y="5.53" width="2" height="2"/><rect class="cls-4" x="9.72" y="3.53" width="2" height="2"/><rect class="cls-4" x="7.72" y="3.53" width="2" height="2"/><rect class="cls-4" x="5.72" y="3.53" width="2" height="2"/><rect class="cls-4" x="5.72" y="3.53" width="2" height="2"/><rect class="cls-4" x="5.72" y="5.53" width="2" height="2"/></g><rect class="cls-2" x="5.72" y="10.54" width="2" height="2"/><rect class="cls-2" x="8.72" y="10.54" width="2" height="2"/><rect class="cls-2" x="9.72" y="10.54" width="2" height="2"/><rect class="cls-2" x="6.72" y="10.54" width="2" height="2"/><rect class="cls-4" x="7.72" y="11.54" width="2" height="2"/><rect class="cls-4" x="9.72" y="9.54" width="2" height="2"/><rect class="cls-4" x="7.72" y="9.54" width="2" height="2"/><rect class="cls-4" x="5.72" y="9.54" width="2" height="2"/><rect class="cls-4" x="9.72" y="7.54" width="2" height="2"/><rect class="cls-4" x="7.72" y="7.54" width="2" height="2"/><rect class="cls-4" x="5.72" y="7.54" width="2" height="2"/><rect class="cls-4" x="9.72" y="5.53" width="2" height="2"/><rect class="cls-4" x="7.72" y="5.53" width="2" height="2"/><rect class="cls-4" x="5.72" y="5.53" width="2" height="2"/><rect class="cls-4" x="9.72" y="3.53" width="2" height="2"/><rect class="cls-4" x="7.72" y="3.53" width="2" height="2"/><rect class="cls-2" x="5.72" y="3.53" width="2" height="2"/><rect class="cls-2" x="5.72" y="1.53" width="2" height="2"/><rect class="cls-2" x="11.73" y="1.53" width="2" height="2"/><rect class="cls-2" x="9.72" y="1.53" width="2" height="2"/><rect class="cls-2" x="7.72" y="1.53" width="2" height="2"/><rect class="cls-4" x="5.72" y="5.53" width="2" height="2"/><rect class="cls-2" x="3.71" y="9.54" width="2" height="2"/><rect class="cls-2" x="3.71" y="7.54" width="2" height="2"/><rect class="cls-2" x="3.71" y="5.53" width="2" height="2"/><rect class="cls-2" x="3.71" y="3.53" width="2" height="2"/><rect class="cls-2" x="2.71" y="9.54" width="2" height="2"/><rect class="cls-2" x="2.71" y="7.54" width="2" height="2"/><rect class="cls-2" x="2.71" y="5.53" width="2" height="2"/><rect class="cls-2" x="2.71" y="3.53" width="2" height="2"/><rect class="cls-2" x="11.73" y="9.54" width="2" height="2"/><rect class="cls-2" x="11.73" y="7.54" width="2" height="2"/><rect class="cls-2" x="11.73" y="5.53" width="2" height="2"/><rect class="cls-2" x="11.73" y="3.53" width="2" height="2"/><rect class="cls-2" x="11.73" y="3.53" width="2" height="2"/><rect class="cls-2" x="11.73" y="5.53" width="2" height="2"/><rect class="cls-2" x="12.73" y="9.54" width="2" height="2"/><rect class="cls-2" x="3.71" y="10.54" width="2" height="2"/><rect class="cls-2" x="2.71" y="10.54" width="2" height="2"/><rect class="cls-2" x="11.73" y="10.54" width="2" height="2"/><rect class="cls-2" x="12.73" y="10.54" width="2" height="2"/><rect class="cls-2" x="12.73" y="7.54" width="2" height="2"/><rect class="cls-2" x="12.73" y="3.53" width="2" height="2"/><rect class="cls-2" x="12.73" y="5.53" width="2" height="2"/></svg>